<svg xmlns="http://www.w3.org/2000/svg" width="980" height="980" viewBox="0 0 980 980" version="1.1">
	<path d="M 455.318 246.466 C 454.077 247.348, 452.462 250.338, 451.572 253.400 C 449.981 258.873, 448.755 260, 444.393 260 C 442.467 260, 441.820 259.351, 441.336 256.932 C 440.999 255.245, 439.773 253.262, 438.611 252.525 C 436.199 250.995, 400.601 246.748, 397.372 247.605 C 394.554 248.353, 393 252.011, 393 257.897 C 393 262.239, 392.447 263.396, 387.250 269.939 C 384.087 273.920, 376.100 285.125, 369.500 294.839 L 357.500 312.500 332 313.157 C 311.968 313.674, 304.499 314.250, 297.168 315.846 C 283.961 318.721, 282.733 319.820, 280.788 330.500 C 280.547 331.822, 279.759 332.408, 278.462 332.230 C 256.264 329.169, 237.914 332.810, 227.214 342.398 L 223.500 345.726 208 346.238 C 188.709 346.875, 185.348 347.969, 184.397 353.921 C 183.605 358.869, 183.229 359.176, 174.500 361.993 C 166.631 364.534, 161.671 367.802, 159.596 371.815 C 158.824 373.307, 157.463 381.895, 156.571 390.901 C 155.679 399.906, 154.647 407.775, 154.279 408.387 C 153.910 408.999, 151.898 411.677, 149.807 414.337 C 144.381 421.240, 141.697 430.701, 142.148 441.342 C 142.468 448.899, 142.841 450.206, 146.258 455.741 L 150.017 461.829 150.958 494.164 C 151.476 511.949, 152.169 545.625, 152.498 569 C 153.185 617.689, 154.445 649.203, 156.537 670 C 157.339 677.975, 157.998 686.975, 158.002 690 C 158.010 698.251, 160.379 701.398, 169.785 705.651 C 174.028 707.570, 183.575 712.007, 191 715.511 C 215.611 727.126, 223.963 728.509, 264.793 727.728 C 294.368 727.162, 304.889 726.106, 347 719.478 C 359.375 717.530, 394.925 712.152, 426 707.527 C 457.075 702.902, 498.145 696.750, 517.267 693.857 C 546.765 689.393, 552.599 688.766, 555.767 689.717 C 565.909 692.763, 588.394 701.380, 595.500 704.943 C 599.900 707.149, 608.675 710.827, 615 713.115 C 621.325 715.403, 632.279 719.708, 639.341 722.681 C 667.445 734.513, 689.451 737.266, 716.874 732.381 C 759.384 724.808, 794.722 695.357, 817.520 648.500 C 827.777 627.419, 833.281 609.202, 836.554 585.500 C 838.859 568.807, 838.131 537.803, 835.092 523.262 C 831.273 504.989, 822.556 483.719, 812.916 469.152 C 806.976 460.175, 793.314 446.156, 784.765 440.263 C 773.380 432.416, 766.228 429.268, 740.538 420.796 C 727.359 416.449, 716.054 412.460, 715.415 411.930 C 714.777 411.400, 713.941 408.195, 713.558 404.807 C 712.706 397.279, 710.461 392.739, 705 387.500 C 702.707 385.300, 700.012 381.925, 699.013 380 C 698.013 378.075, 696.138 375.528, 694.847 374.339 C 692.130 371.838, 684.759 369.624, 682.031 370.490 C 680.280 371.046, 680.139 370.254, 679.830 358.119 C 679.443 342.918, 679.183 342.446, 667.969 336.553 L 661.167 332.979 660.834 321.014 C 660.543 310.577, 660.240 308.791, 658.465 307.018 C 653.543 302.103, 623.887 299.145, 597.015 300.890 C 587.248 301.524, 576.702 302.708, 573.579 303.521 C 570.457 304.335, 567.137 304.998, 566.201 304.995 C 565.266 304.992, 555.275 296.172, 544 285.395 C 532.725 274.618, 522.149 265.211, 520.498 264.491 C 518.848 263.770, 513.673 262.858, 508.998 262.462 C 498.672 261.590, 497.265 260.930, 496.448 256.574 C 495.702 252.596, 492.866 249.217, 489.722 248.559 C 488.500 248.303, 482.775 247.616, 477 247.033 C 471.225 246.450, 464.475 245.735, 462 245.443 C 458.840 245.071, 456.851 245.376, 455.318 246.466 M 459.035 254.934 C 458.466 255.998, 458 257.798, 458 258.934 C 458 260.731, 458.619 261.001, 462.750 261.007 C 465.363 261.011, 470.650 261.294, 474.500 261.636 C 484.622 262.534, 481.741 260.396, 471.026 259.058 C 466.366 258.476, 462.203 258, 461.776 258 C 461.349 258, 461 257.492, 461 256.871 C 461 256.070, 463.252 255.942, 468.750 256.432 C 481.769 257.591, 483.272 258.110, 484.223 261.780 C 484.928 264.503, 485.519 265, 488.048 265 C 490.803 265, 490.986 264.783, 490.381 262.250 C 488.802 255.647, 488.862 255.678, 474.500 254.035 C 461.898 252.594, 460.236 252.690, 459.035 254.934 M 400.392 257.573 C 400.032 259.008, 400.235 260.635, 400.850 261.250 C 402.432 262.832, 420.899 265.973, 421.633 264.785 C 422.683 263.085, 420.665 262.268, 412.522 261.094 C 401.422 259.494, 399.968 257.546, 410.500 258.385 C 422.312 259.325, 424.254 260.040, 425.230 263.809 C 426.005 266.798, 426.340 267, 430.529 267 C 434.576 267, 435 266.774, 435 264.611 C 435 263.297, 434.212 261.276, 433.250 260.121 C 431.764 258.338, 429.409 257.793, 417.655 256.511 C 400.168 254.603, 401.153 254.542, 400.392 257.573 M 397.264 269.750 C 392.626 273.896, 366 311.630, 366 314.056 C 366 314.554, 367.238 315.262, 368.750 315.630 C 378.008 317.877, 387.420 324.158, 390.585 330.200 C 392.430 333.722, 392.387 340.139, 390.487 344.686 C 389.655 346.677, 389.093 348.426, 389.239 348.572 C 389.563 348.897, 420.443 357.596, 424.178 358.415 C 430.649 359.834, 430.860 357.483, 428.623 308.710 C 427.640 287.282, 427.022 280.601, 425.924 279.528 C 425.141 278.762, 419.100 276.941, 412.500 275.481 C 400.886 272.912, 397.908 271.759, 399.295 270.372 C 400.337 269.329, 425.948 275.136, 428.126 276.909 C 430.435 278.788, 430.505 279.526, 432.488 323.172 C 433.942 355.170, 433.729 358.630, 429.983 363.916 C 428.882 365.471, 427.301 371.478, 426.015 379 C 419.520 416.978, 417.056 428.312, 414.488 432.017 C 412.653 434.665, 411.510 438.364, 410.443 445.104 C 409.624 450.272, 408.248 458.439, 407.384 463.254 C 406.400 468.737, 406.069 473.863, 406.496 476.972 C 407.001 480.642, 406.756 482.783, 405.555 485.189 C 404.663 486.979, 403.283 492.506, 402.491 497.472 C 399.115 518.616, 396 541.699, 396 545.572 C 396 551.249, 414.872 656.365, 416.059 657.297 C 418.601 659.295, 438.162 671.168, 438.437 670.881 C 438.639 670.672, 433.223 642.624, 426.402 608.553 C 419.581 574.482, 414 544.847, 414 542.696 C 414 540.546, 414.672 534.897, 415.493 530.143 C 416.315 525.389, 418.805 508.900, 421.026 493.500 C 429.746 433.061, 441.610 362.063, 444.007 355.983 L 445.917 351.137 441.393 316.396 C 438.773 296.272, 437.169 280.570, 437.581 279.077 C 438.275 276.560, 438.311 276.582, 439.088 280 C 439.525 281.925, 442.031 298.913, 444.655 317.750 L 449.428 352 453.964 351.994 C 456.459 351.990, 474.475 350.648, 494 349.010 C 513.525 347.372, 542.100 345.542, 557.500 344.944 C 587.230 343.789, 592 343.394, 592 342.092 C 592 341.642, 589.638 339.100, 586.750 336.444 C 582.197 332.255, 563.956 314.854, 527.908 280.309 C 522.633 275.254, 517.095 270.811, 515.602 270.436 C 514.110 270.062, 498.176 270.263, 480.194 270.883 C 434.780 272.449, 425.490 272.328, 412.129 269.990 C 398.439 267.594, 399.654 267.614, 397.264 269.750 M 585.792 308.871 C 572.786 310.838, 585.022 312.513, 612 312.459 C 623.275 312.436, 635.200 312.046, 638.500 311.591 C 643.915 310.844, 644.256 310.662, 642 309.724 C 639.080 308.510, 592.820 307.808, 585.792 308.871 M 401.104 315.535 C 397.674 319.441, 397.286 321.162, 399.433 322.944 C 400.557 323.877, 401.474 323.772, 403.683 322.458 L 406.500 320.783 404.174 322.863 C 401.483 325.271, 402.168 327.380, 405.334 326.434 C 410.071 325.019, 412.454 318.585, 409.965 313.934 C 408.334 310.887, 404.591 311.563, 401.104 315.535 M 618.500 317.951 L 606.500 318.500 606 327.827 C 605.309 340.713, 605.471 341, 613.409 341 C 617.489 341, 620.181 340.538, 620.691 339.750 C 621.136 339.063, 621.725 334.332, 622 329.238 C 622.294 323.791, 622.912 320.084, 623.500 320.238 C 624.109 320.398, 624.359 324.113, 624.139 329.741 C 623.718 340.554, 624.020 340.878, 633.727 340.014 L 639.500 339.500 639.783 328.250 L 640.066 317 635.283 317.201 C 632.652 317.312, 625.100 317.649, 618.500 317.951 M 323 319.575 C 303.069 321.802, 299.021 322.421, 299.731 323.131 C 302.331 325.731, 348.085 324.954, 358.586 322.131 C 361.375 321.382, 361.306 321.321, 356.959 320.722 C 350.854 319.880, 327.370 319.087, 323 319.575 M 300.165 329.406 C 305.725 330.567, 347.950 330.552, 354.416 329.386 C 357.743 328.787, 349.068 328.500, 327.581 328.500 C 306.092 328.500, 297.231 328.793, 300.165 329.406 M 373.122 329.919 C 372.031 330.598, 371.894 332.565, 372.462 339.388 C 372.857 344.125, 373.537 348, 373.973 348 C 375.257 348, 375.532 344.994, 375 336.781 C 374.597 330.554, 374.234 329.227, 373.122 329.919 M 289 333.253 C 289 336.228, 296.062 339.326, 297.509 336.985 C 298.536 335.324, 296.047 333.159, 292.237 332.397 C 289.737 331.897, 289 332.092, 289 333.253 M 349 334.666 C 341.436 335.857, 341.894 335.176, 342.211 344.779 L 342.500 353.500 348.340 353.298 C 356.291 353.023, 357 352.227, 357 343.578 C 357 334.328, 356.275 333.520, 349 334.666 M 321.500 335.673 C 320.400 335.980, 319.169 336.742, 318.765 337.366 C 317.548 339.245, 317.893 351.493, 319.200 352.800 C 319.936 353.536, 323.533 354, 328.500 354 C 333.467 354, 337.064 353.536, 337.800 352.800 C 339.424 351.176, 339.343 339.851, 337.690 337.591 C 336.723 336.268, 334.699 335.711, 329.940 335.457 C 326.398 335.269, 322.600 335.366, 321.500 335.673 M 250.500 339.402 C 244.061 340.883, 237 343.884, 237 345.140 C 237 346.726, 245.002 347.499, 261 347.457 C 277.146 347.414, 289.627 345.823, 288.471 343.953 C 288.166 343.459, 284.900 342.123, 281.214 340.984 C 272.555 338.310, 258.416 337.582, 250.500 339.402 M 649.500 343.619 C 642.326 345.585, 624.070 347.184, 613 346.816 C 604.011 346.517, 603.484 346.612, 603.202 348.588 C 602.636 352.550, 604.511 352.879, 622 351.888 C 641.664 350.774, 664.547 348.353, 666.678 347.160 C 667.950 346.448, 667.749 345.947, 665.467 344.153 C 662.300 341.661, 657.257 341.493, 649.500 343.619 M 568 347.652 C 565.525 347.818, 554.950 348.443, 544.500 349.041 C 510.399 350.993, 451.062 355.897, 449.146 356.922 C 448.117 357.473, 446.786 359.178, 446.190 360.712 C 444.758 364.394, 433.448 433.976, 422.900 504 C 417.492 539.896, 417.346 549.634, 421.908 569.855 C 423.690 577.750, 429.084 603.957, 433.895 628.093 C 438.707 652.229, 442.903 672.236, 443.220 672.553 C 443.791 673.125, 498.116 665.174, 498.917 664.402 C 499.425 663.911, 500.215 664.496, 489.963 657.763 C 454.176 634.259, 432.676 582.824, 436.908 530.842 C 438.753 508.186, 443.260 490.469, 451.455 473.658 C 463.622 448.700, 486.125 425.907, 510.834 413.513 C 531.545 403.124, 547.797 400.588, 585 401.940 C 597.925 402.410, 608.630 402.672, 608.790 402.524 C 609.104 402.231, 597.582 355.561, 595.884 350.250 L 594.845 347 583.672 347.175 C 577.528 347.271, 570.475 347.485, 568 347.652 M 669.416 350.011 C 665.513 351.513, 652.537 352.969, 629.550 354.486 C 616.927 355.319, 606.249 356.351, 605.820 356.780 C 605.170 357.430, 607.583 367.634, 616.098 400.250 C 616.923 403.411, 617.503 404.004, 619.789 404.023 C 627.048 404.085, 669.736 398.580, 671.784 397.317 L 674.068 395.909 673.408 373.205 C 673.045 360.717, 672.468 350.210, 672.124 349.854 C 671.781 349.499, 670.562 349.570, 669.416 350.011 M 200.792 350.865 C 198.203 351.260, 195.828 351.838, 195.516 352.151 C 194.514 353.152, 209.473 354.078, 215.592 353.394 C 222.410 352.631, 226.268 351.083, 221.500 351.023 C 219.850 351.003, 215.575 350.797, 212 350.566 C 208.425 350.336, 203.381 350.470, 200.792 350.865 M 234 352.616 C 234 355.499, 234.978 358, 236.107 358 C 236.598 358, 237 356.860, 237 355.466 C 237 352.997, 237.136 352.947, 242.250 353.546 C 249.399 354.384, 250 354.644, 250 356.899 C 250 358.138, 249.171 359.020, 247.750 359.294 C 246.512 359.533, 247.468 359.789, 249.872 359.864 C 253.653 359.982, 254.076 359.797, 253 358.500 C 250.830 355.886, 253.270 354.478, 259.668 354.653 C 264.695 354.791, 265.543 355.093, 265.811 356.842 C 266.070 358.528, 265.477 358.939, 262.311 359.268 C 260.215 359.486, 262.100 359.686, 266.500 359.714 C 271.181 359.743, 273.256 359.497, 271.500 359.122 C 269.386 358.670, 268.500 357.892, 268.500 356.490 C 268.500 354.827, 269.194 354.490, 272.729 354.438 C 275.055 354.404, 277.251 354.082, 277.610 353.723 C 278.457 352.876, 282 354.768, 282 356.067 C 282 356.616, 280.988 357.471, 279.750 357.969 L 277.500 358.873 279.816 358.937 C 281.089 358.971, 283.039 358.514, 284.149 357.920 C 286.053 356.901, 286.071 356.736, 284.471 354.968 C 282.858 353.186, 282.903 353.068, 285.388 352.547 C 286.824 352.246, 289.178 351.753, 290.618 351.451 C 296.170 350.288, 291.825 349.918, 284.527 350.933 C 276.005 352.118, 248.677 352.228, 239.750 351.113 C 234.260 350.427, 234 350.495, 234 352.616 M 379.357 354.541 C 371.259 358.090, 355.644 360.217, 332 360.990 C 310.379 361.698, 307.380 362.024, 294.500 365.071 C 281.352 368.181, 279.434 368.380, 263 368.325 C 249.558 368.281, 243.484 367.820, 236.805 366.339 C 228.700 364.542, 227.488 364.510, 218.936 365.879 C 211.304 367.101, 208.060 367.144, 199.631 366.134 C 189.542 364.926, 189.461 364.934, 180 367.969 C 170.323 371.074, 166.042 373.375, 167.406 374.740 C 167.825 375.158, 183.542 375.461, 202.333 375.413 C 233.231 375.335, 245.204 374.732, 327.462 369.118 C 377.491 365.703, 418.595 362.739, 418.804 362.530 C 419.012 362.321, 412.706 360.091, 404.789 357.575 C 389.840 352.824, 384.679 352.208, 379.357 354.541 M 192 357.619 C 192 359.083, 197.678 359.977, 207 359.981 C 214.829 359.985, 226.994 358.384, 228.200 357.192 C 228.585 356.811, 220.598 356.500, 210.450 356.500 C 197.507 356.500, 192 356.834, 192 357.619 M 281 360.110 C 274.116 361.186, 250.333 361.524, 243 360.649 C 239.498 360.231, 238.234 360.315, 239.521 360.879 C 242.111 362.016, 260.798 364.064, 264.036 363.566 C 265.391 363.358, 269.938 362.906, 274.140 362.562 C 278.343 362.218, 283.743 361.320, 286.140 360.567 C 291.076 359.017, 289.107 358.842, 281 360.110 M 406 367.063 C 327.043 372.884, 227.587 377.983, 192.843 377.993 L 165.187 378 164.471 387.544 C 164.078 392.794, 163.968 397.301, 164.228 397.561 C 164.488 397.821, 166.992 397.505, 169.792 396.859 C 174.102 395.864, 175.553 395.940, 179.257 397.354 C 187.259 400.410, 192 407.535, 192 416.505 L 192 420.711 198.750 421.348 C 207.389 422.164, 218.063 422.172, 225.759 421.367 L 231.811 420.735 231.709 414.055 C 231.628 408.854, 232.079 406.609, 233.740 403.920 C 239.776 394.155, 250.801 390.430, 260.500 394.879 C 266.685 397.716, 269.529 401.327, 273.438 411.304 C 275.419 416.362, 278.495 423.200, 280.273 426.500 L 283.506 432.500 293.503 432.246 C 309.871 431.830, 324 430.853, 324 430.138 C 324 429.771, 321.687 428.648, 318.860 427.644 C 311.990 425.204, 304.606 418.226, 302.570 412.250 C 298.287 399.683, 303.402 385.559, 314.347 379.730 C 317.832 377.873, 320.109 377.516, 328.500 377.509 C 337.071 377.501, 339.203 377.846, 343.423 379.923 C 349.994 383.157, 355.651 388.995, 358.729 395.720 C 363.693 406.562, 360.122 419.419, 350.350 425.892 L 345.657 429 351.579 428.973 C 354.835 428.958, 369.425 428.295, 384 427.500 C 398.575 426.705, 411.014 426.042, 411.643 426.027 C 412.272 426.012, 413.088 425.212, 413.458 424.250 C 414.324 421.994, 424 370.184, 424 367.803 C 424 365.775, 423.664 365.761, 406 367.063 M 534 369.453 C 515.025 371.285, 491.525 373.265, 481.778 373.852 C 459.816 375.175, 457.365 376.248, 452.024 386.884 C 449.661 391.590, 443.880 407.213, 444.334 407.667 C 444.484 407.818, 446.234 405.142, 448.222 401.721 C 452.927 393.622, 458.297 388.235, 464.500 385.387 C 468.706 383.457, 473.393 382.763, 494 381.021 C 507.475 379.881, 521.200 378.535, 524.500 378.029 C 527.800 377.522, 536.705 376.603, 544.289 375.985 C 566.559 374.171, 581.449 376.879, 591.534 384.578 C 593.990 386.453, 596 387.864, 596 387.715 C 596 387.142, 590.384 374.393, 589.192 372.260 C 585.479 365.615, 577.790 365.224, 534 369.453 M 682.189 377.862 C 680.297 379.062, 680.468 386.540, 682.458 389.576 C 683.880 391.747, 689.931 395.397, 690.752 394.580 C 690.891 394.442, 689.662 391.892, 688.021 388.914 C 686.379 385.936, 685.028 382.750, 685.018 381.833 C 684.996 379.753, 686.948 378.986, 689.250 380.170 C 690.350 380.736, 691 380.699, 691 380.070 C 691 377.711, 684.856 376.171, 682.189 377.862 M 315 385.794 C 315 386.350, 316.417 387.298, 318.149 387.902 C 322.430 389.394, 323.716 389.281, 321.964 387.566 C 320.092 385.732, 315 384.436, 315 385.794 M 330.500 388.662 C 318.201 395.145, 314.661 409.850, 323.089 419.448 C 326.157 422.943, 333.794 426.607, 336.177 425.727 C 336.974 425.432, 336.341 424.778, 334.581 424.080 C 330.928 422.630, 329.073 420.243, 329.032 416.941 C 328.992 413.777, 330.438 411.939, 335.200 409.103 C 340.027 406.227, 343 401.317, 343 396.221 C 343 392.934, 342.425 391.694, 339.923 389.589 C 336.392 386.618, 334.694 386.451, 330.500 388.662 M 310 390.832 C 310 392.176, 317.321 394.079, 318.387 393.013 C 318.972 392.428, 318.297 391.683, 316.598 391.037 C 313.315 389.789, 310 389.686, 310 390.832 M 308 396.311 C 308 397.861, 314.728 399.250, 315.577 397.875 C 316.173 396.910, 315.202 396.386, 311.250 395.538 C 308.741 395, 308 395.176, 308 396.311 M 680.724 403.293 C 680.114 407.288, 681.558 409.191, 684.906 408.801 C 688.650 408.364, 688.534 405.896, 684.625 402.793 L 681.214 400.086 680.724 403.293 M 245.763 402.565 C 242.513 404.329, 240 408.780, 240 412.774 C 240 414.355, 241.066 419.214, 242.370 423.574 C 243.673 427.933, 245.295 434.800, 245.974 438.834 C 247.557 448.237, 251.237 453.017, 256.854 452.968 C 259.890 452.942, 260.245 452.732, 258.977 451.718 C 255.928 449.281, 253 444.674, 253 442.315 C 253 438.528, 255.626 434.398, 258.894 433.044 C 264.729 430.627, 271.985 435.100, 273.512 442.056 C 273.870 443.685, 274.576 444.762, 275.081 444.450 C 277.205 443.137, 275.823 436.605, 271.651 428.230 C 269.259 423.429, 266.054 416.198, 264.530 412.162 C 262.418 406.570, 261.013 404.369, 258.629 402.915 C 254.915 400.651, 249.560 400.505, 245.763 402.565 M 308 402 C 309.983 403.282, 314.292 403.282, 313.500 402 C 313.160 401.450, 311.446 401.007, 309.691 401.015 C 307.263 401.027, 306.859 401.262, 308 402 M 169.500 404 C 169.160 404.550, 169.843 405, 171.018 405 C 174.003 405, 179 410.271, 179 413.420 C 179 415.379, 178.223 416.319, 175.750 417.352 L 172.500 418.710 176.500 419.849 C 181.903 421.389, 183.674 421.292, 184.393 419.418 C 186.211 414.682, 183.983 407.502, 179.783 404.561 C 177.300 402.821, 170.459 402.448, 169.500 404 M 696.180 406.155 C 696.398 408.424, 697.079 409.593, 698.320 409.829 C 699.832 410.115, 700.086 409.610, 699.820 406.845 C 699.602 404.576, 698.921 403.407, 697.680 403.171 C 696.168 402.885, 695.914 403.390, 696.180 406.155 M 246.032 405.940 C 244.386 409.016, 246.391 412.209, 249.716 411.810 C 253.065 411.408, 254.893 408.644, 253.394 406.250 C 251.750 403.624, 247.370 403.440, 246.032 405.940 M 559.500 408.109 C 544.918 410.212, 528.409 417.216, 515.500 426.776 C 506.903 433.144, 494 444.667, 494 445.978 C 494 446.418, 500.413 447.983, 508.250 449.456 C 516.087 450.928, 523.451 452.361, 524.614 452.640 C 526.260 453.036, 528.758 451.133, 535.909 444.036 C 550.887 429.173, 566.106 418.907, 582.750 412.443 C 586.737 410.894, 590 409.326, 590 408.958 C 590 407.184, 569.814 406.622, 559.500 408.109 M 168.209 409.984 C 163.207 411.169, 157.702 416.240, 153.345 423.674 C 151.145 427.428, 150.542 429.887, 150.194 436.533 C 149.670 446.512, 150.948 450.869, 155.596 454.950 C 158.420 457.430, 159.951 457.999, 163.785 457.996 C 174.885 457.987, 180.246 449.807, 181.315 431.250 C 181.675 425.002, 181.504 424, 180.078 424 C 179.168 424, 176.753 423.149, 174.711 422.108 C 170.271 419.844, 169.715 421.302, 173.351 425.673 C 177.120 430.204, 178 432.543, 178 438.033 C 178 448.046, 171.932 454.791, 163.894 453.713 C 159.056 453.064, 157.457 451.816, 154.808 446.623 C 151.957 441.036, 152.632 430.573, 156.309 423.351 C 159.231 417.614, 165.063 412.192, 169.250 411.322 C 170.762 411.007, 172 410.356, 172 409.875 C 172 409.394, 171.887 409.046, 171.750 409.102 C 171.613 409.159, 170.019 409.556, 168.209 409.984 M 525.954 413.353 C 502.621 421.591, 482.312 437.809, 467.102 460.349 C 454.275 479.358, 446.554 501.190, 445.476 521.500 L 444.944 531.500 448.900 518.500 C 451.076 511.350, 454.290 501.450, 456.044 496.500 C 468.388 461.654, 493.906 431.427, 523.750 416.300 C 535.695 410.245, 536.032 409.795, 525.954 413.353 M 626 412.139 C 578.695 419.923, 536.062 462.753, 520.127 518.500 C 516.731 530.378, 516.526 532.643, 518.792 533.235 C 520.506 533.684, 521.037 532.718, 522.976 525.624 C 534.863 482.147, 562.127 446.597, 599.282 426.128 C 607.164 421.786, 627.977 413, 630.381 413 C 631.206 413, 632.160 412.550, 632.500 412 C 632.840 411.450, 632.754 411.053, 632.309 411.117 C 631.864 411.181, 629.025 411.641, 626 412.139 M 251 414.294 C 242.595 418.545, 246.294 431, 255.961 431 C 261.009 431, 264 427.754, 264 422.274 C 264 418.928, 263.437 417.704, 260.923 415.589 C 257.532 412.735, 254.789 412.377, 251 414.294 M 584.657 415.083 C 572.466 418.015, 553.016 430.859, 537.934 445.937 C 516.425 467.439, 501.306 494.552, 495.470 522.085 C 493.473 531.509, 492.519 551.278, 493.810 556.500 L 494.799 560.500 494.900 554.743 C 495.114 542.460, 499.194 521.266, 504.150 506.687 C 512.703 481.528, 531.067 456.043, 549.441 443.831 C 551.242 442.634, 550.360 443.829, 547.296 446.735 C 540.713 452.979, 528.756 466.909, 523.288 474.705 L 519.089 480.692 522.439 481.720 C 524.282 482.285, 526.239 482.467, 526.788 482.124 C 527.337 481.781, 530.043 478.123, 532.801 473.996 C 539.565 463.874, 564.899 439.140, 576 431.820 C 580.675 428.737, 588.242 424.347, 592.815 422.064 C 598.961 418.995, 601.045 417.467, 600.805 416.206 C 600.546 414.848, 599.258 414.465, 594.490 414.329 C 591.195 414.236, 586.771 414.575, 584.657 415.083 M 646.500 418.445 C 626.264 423.720, 613.366 430.800, 595.678 446.340 C 574.002 465.384, 555.419 499.074, 551.868 525.768 C 550.961 532.588, 550.930 535.330, 551.751 536.151 C 553.358 537.758, 556.018 532.970, 562.113 517.500 C 582.098 466.771, 612.273 433.980, 652.370 419.416 C 663.367 415.422, 660.142 414.888, 646.500 418.445 M 626.528 418.066 C 623.794 418.524, 619.519 419.666, 617.028 420.604 C 608.963 423.645, 592.392 433.080, 583.816 439.517 C 575.980 445.398, 555 466.030, 555 467.856 C 555 468.746, 561.694 471, 564.340 471 C 565.705 471, 569.769 465.207, 568.824 464.610 C 568.646 464.497, 567.246 463.866, 565.712 463.207 C 563.338 462.186, 563.082 461.715, 563.985 460.027 C 565.500 457.198, 568.791 455.708, 572.078 456.366 C 574.420 456.834, 575.286 456.407, 577.065 453.909 C 579.498 450.491, 578.912 448.949, 575.895 450.834 C 574.055 451.982, 573.973 451.919, 574.946 450.101 C 576.469 447.255, 577.597 446.810, 579 448.500 C 579.675 449.313, 580.647 449.718, 581.162 449.400 C 581.710 449.061, 581.595 448.218, 580.884 447.361 C 578.955 445.036, 582.326 442.462, 586.750 442.882 C 589.174 443.111, 587.929 445.259, 581.027 452.749 C 560.732 474.774, 543.815 512.631, 537.345 550.500 C 535.162 563.281, 534.901 595.586, 536.877 608.500 C 538.825 621.227, 544.272 640.485, 548.606 649.966 C 550.635 654.405, 552.493 657.840, 552.735 657.598 C 552.977 657.356, 551.605 653.185, 549.685 648.329 C 545.765 638.410, 541.801 624.211, 539.823 613 C 537.821 601.652, 538.137 563.310, 540.342 550 C 542.724 535.622, 547.248 518.636, 551.618 507.663 C 567.919 466.738, 591.460 439.041, 622.882 423.820 C 636.606 417.172, 637.166 416.288, 626.528 418.066 M 659.813 420.050 C 618.241 431.913, 581.726 472.398, 564.058 526.214 C 557.181 547.162, 554.506 567.354, 555.294 592.370 C 556.589 633.512, 565.334 660.555, 585.467 685.673 C 591.249 692.887, 600 701.245, 600 699.554 C 600 699.216, 597.497 695.989, 594.438 692.383 C 578.725 673.861, 568.012 650.276, 562.469 622 C 560.194 610.398, 559.382 580.824, 560.964 567.175 C 563.821 542.518, 569.379 522.543, 579.019 502.282 C 598.531 461.272, 627.835 433.168, 663.771 420.997 C 673.693 417.637, 670.743 416.931, 659.813 420.050 M 691 418.720 C 667.052 420.075, 646.384 429.008, 623.670 447.821 C 604.779 463.467, 588.090 487.821, 576.418 516.774 C 573.046 525.137, 569.757 536.091, 570.419 536.753 C 570.605 536.938, 571.898 535.158, 573.293 532.795 C 576.354 527.609, 581.720 522, 583.619 522 C 585.420 522, 585.404 526.427, 583.561 538.261 C 581.837 549.337, 580.534 563.708, 581.321 562.974 C 581.631 562.685, 582.809 558.185, 583.939 552.974 C 597.017 492.639, 634.655 444.831, 682.218 428.138 C 691.008 425.054, 705.692 422.009, 711.809 422.003 C 713.629 422.001, 714.859 421.581, 714.543 421.070 C 713.686 419.683, 699.323 418.249, 691 418.720 M 165.728 420.605 C 164.340 421.993, 165.009 426.698, 166.829 428.345 C 169.840 431.070, 171.515 430.434, 169.485 427.336 C 168.525 425.871, 167.451 423.594, 167.098 422.275 C 166.745 420.956, 166.129 420.204, 165.728 420.605 M 193.416 424.917 C 192.776 425.557, 192.923 433.636, 193.607 435.418 C 194.131 436.785, 196.838 437, 213.525 437 C 224.146 437, 233.548 436.727, 234.418 436.393 C 236.266 435.684, 236.338 432.855, 234.629 428.130 L 233.409 424.761 213.621 424.630 C 202.737 424.559, 193.645 424.688, 193.416 424.917 M 603.134 428.632 C 601.282 429.440, 600.006 430.339, 600.298 430.631 C 600.590 430.923, 601.767 430.660, 602.914 430.046 C 604.361 429.272, 605 429.257, 605 429.996 C 605 430.583, 604.325 431.322, 603.500 431.638 C 602.675 431.955, 602 432.622, 602 433.121 C 602 433.620, 603.793 432.842, 605.984 431.392 C 611.869 427.497, 609.964 425.652, 603.134 428.632 M 703.500 430.001 C 677.933 431.459, 656.136 441.290, 637.234 459.890 C 619.220 477.616, 606.286 497.743, 596.678 523 C 590.902 538.182, 585.458 558.865, 587.860 556.500 C 588.418 555.950, 595.774 541.775, 604.205 525 C 623.256 487.097, 628.018 479.923, 645.250 463.153 C 659.144 449.631, 672.216 441.245, 688.434 435.448 C 693.740 433.552, 698.626 432.033, 699.291 432.074 C 699.956 432.115, 697.510 433.195, 693.855 434.473 C 675.204 440.997, 662.190 449.476, 646.460 465.350 C 613.119 498.997, 594.512 546.604, 594.614 598 C 594.646 614.039, 595.843 623.533, 599.720 638.500 C 605.555 661.023, 614.658 678.262, 628.411 692.832 C 632.679 697.354, 640 703.551, 640 702.642 C 640 702.353, 637.708 699.503, 634.906 696.308 C 619.879 679.174, 608.037 655.043, 602.952 631.199 C 600.265 618.601, 599.233 589.834, 600.935 575 C 606.765 524.191, 633.526 476.674, 669.795 452.734 C 677.200 447.846, 689.798 441.787, 698 439.169 C 707.797 436.042, 715.985 434.883, 728.331 434.878 C 753.099 434.867, 775.302 444.756, 792.961 463.665 C 809.556 481.435, 819.496 502.221, 824.034 528.644 C 829.374 559.735, 826.972 589.237, 816.549 620.567 C 802.562 662.607, 776.654 694.307, 742.312 711.398 C 728.527 718.259, 713.965 721.928, 695 723.320 C 692.525 723.502, 695.675 723.723, 702 723.812 C 763.455 724.676, 815.704 668.441, 829.620 586.457 C 831.774 573.765, 832.041 545.031, 830.121 532.500 C 822.790 484.660, 794.180 446.366, 756 433.290 C 744.238 429.261, 731.008 428.433, 703.500 430.001 M 161.648 432.184 C 159.847 438.907, 162.073 446.027, 164.907 442.612 C 165.803 441.532, 165.802 440.058, 164.904 436.350 C 163.465 430.414, 162.464 429.134, 161.648 432.184 M 701.813 431.683 C 702.534 431.972, 703.397 431.936, 703.729 431.604 C 704.061 431.272, 703.471 431.036, 702.417 431.079 C 701.252 431.127, 701.015 431.364, 701.813 431.683 M 590.223 437.132 C 587.618 438.800, 587.182 439.514, 588.096 440.615 C 589.897 442.785, 592.174 442.206, 596.500 438.477 L 600.500 435.030 597 435.032 C 595.075 435.033, 592.025 435.978, 590.223 437.132 M 376.960 446.303 C 369.668 450.159, 366.325 458.896, 369.098 466.851 C 370.268 470.207, 372.561 471.344, 371.516 468.049 C 370.670 465.386, 372.556 458.834, 375.098 455.603 C 379.315 450.242, 388.582 447.380, 395 449.457 C 397.488 450.262, 397.491 450.255, 395.600 448.139 C 391.656 443.723, 383.380 442.908, 376.960 446.303 M 193.750 449.561 C 193.338 449.986, 193 454.687, 193 460.008 C 193 474.844, 190.156 481.868, 182.174 486.745 C 173.262 492.190, 165.522 487.186, 161.510 473.386 C 160.665 470.480, 159.457 467.782, 158.825 467.392 C 157.572 466.618, 157.660 472.820, 160.612 593.500 C 161.698 637.878, 162.631 661.272, 163.376 662.787 C 164.176 664.415, 171.269 668.334, 188 676.391 C 200.925 682.616, 211.660 687.294, 211.855 686.788 C 212.051 686.282, 211.653 682.185, 210.971 677.684 C 210.290 673.183, 209.455 661.850, 209.116 652.500 L 208.500 635.500 202.500 635.688 C 195.525 635.907, 196.591 635.444, 207 633.733 L 214.500 632.500 215.315 623 C 217.181 601.255, 214.094 468.761, 211.665 466.332 C 211.295 465.961, 208.406 465.737, 205.246 465.833 C 197.711 466.064, 200.259 464.378, 209.090 463.290 L 215.500 462.500 215.798 456.250 L 216.095 450 211.194 450 C 208.499 450, 203.640 449.728, 200.397 449.395 C 197.154 449.062, 194.162 449.137, 193.750 449.561 M 282.624 450.539 C 281.331 453.907, 282.253 456.226, 291.978 474.059 C 300.785 490.209, 304 495.524, 304 493.935 C 304 493.326, 284.150 449.817, 283.639 449.306 C 283.424 449.090, 282.966 449.645, 282.624 450.539 M 494 449.722 C 488.243 451.885, 481.394 461.045, 472.893 477.948 C 453.512 516.488, 450.563 566.915, 465.387 606.295 C 471.164 621.642, 479.799 635.691, 488.563 644 L 493.309 648.500 487.813 641.500 C 479.387 630.768, 476.236 625.754, 470.964 614.687 C 461.986 595.837, 458.006 577.347, 458.011 554.500 C 458.014 541.457, 459.965 522.702, 461.476 521.191 C 461.840 520.826, 464.019 522.635, 466.319 525.209 C 475.100 535.038, 482.353 536.494, 488.202 529.603 C 489.184 528.446, 491.850 521.650, 494.127 514.500 C 500.247 495.280, 506.403 482.066, 515.640 468.321 C 520.176 461.571, 523.575 455.862, 523.194 455.635 C 522.812 455.408, 519.800 454.686, 516.500 454.030 C 513.200 453.374, 507.640 451.975, 504.145 450.919 C 497.509 448.915, 496.471 448.793, 494 449.722 M 219.667 450.667 C 219.300 451.033, 219 491.923, 219 541.532 C 219 627.958, 218.922 631.830, 217.139 634.115 C 215.481 636.241, 215.200 639.340, 214.558 662.641 C 214.161 677.018, 214.218 689.016, 214.683 689.304 C 216.313 690.312, 235.141 693.160, 236.563 692.614 C 237.777 692.148, 238.029 685.490, 238.189 649.781 L 238.379 607.500 239.054 639.500 C 239.425 657.100, 239.790 676.553, 239.864 682.730 L 240 693.959 244.207 696.106 C 248.173 698.129, 249.482 698.226, 266.957 697.802 C 286.860 697.320, 289.535 696.702, 290.631 692.334 C 291.315 689.609, 289.331 580.664, 288.118 554.332 C 287.462 540.095, 287.233 538.807, 284.397 533.332 C 281.243 527.245, 260.771 497.664, 246.214 478.161 C 238.673 468.057, 233.920 458.746, 235.498 457.168 C 236.122 456.545, 235.113 455.204, 245.528 470.500 C 250.397 477.650, 261.768 494.015, 270.798 506.866 C 279.827 519.718, 288.161 532.318, 289.317 534.866 C 291.627 539.960, 291.772 543.911, 293.559 650.184 L 294.310 694.869 297.839 694.417 C 299.780 694.168, 301.533 693.800, 301.734 693.599 C 301.935 693.398, 301.416 664.943, 300.579 630.367 C 298.194 531.812, 298.322 534.847, 296.348 529.897 C 295.383 527.479, 285.094 512.900, 273.484 497.500 C 261.874 482.100, 250.947 467.404, 249.203 464.843 C 242.034 454.315, 235.347 450.059, 225.917 450.022 C 222.846 450.010, 220.033 450.300, 219.667 450.667 M 382.389 453.905 C 378.293 456.402, 375 461.140, 375 464.535 C 375 467.108, 375.203 467.229, 378.606 466.677 C 380.589 466.355, 383.283 465.389, 384.593 464.531 C 387.430 462.672, 391.363 455.388, 390.601 453.403 C 389.845 451.433, 386.062 451.665, 382.389 453.905 M 701.500 458.468 C 698.750 459.262, 696.087 459.932, 695.583 459.956 C 695.079 459.980, 694.883 460.216, 695.147 460.480 C 695.411 460.744, 699.423 460.240, 704.064 459.359 C 724.246 455.527, 747.097 461.734, 764.541 475.787 C 784.458 491.832, 797.664 521.826, 799.634 555.487 C 801.021 579.204, 794.226 609.723, 782.392 632.914 C 770.803 655.627, 753.753 672.911, 732.500 683.491 C 719.679 689.874, 709.986 692.249, 696.500 692.312 C 662.692 692.471, 633.443 671.080, 619.859 636.261 C 618.091 631.730, 616.453 628.213, 616.219 628.447 C 615.986 628.681, 616.804 631.938, 618.037 635.686 C 628.068 666.164, 651.415 688.740, 678.937 694.574 C 687.682 696.428, 702.301 696.363, 711.792 694.429 C 741.808 688.313, 769.130 664.863, 786.277 630.500 C 796.236 610.542, 800.748 592.647, 801.657 569.500 C 803.179 530.754, 793.185 501.210, 771.022 478.942 C 762.344 470.222, 752.874 464.268, 741.500 460.382 C 734.638 458.038, 731.580 457.604, 720 457.337 C 710.396 457.115, 705.057 457.442, 701.500 458.468 M 263.544 479.272 C 271.737 490.064, 278.612 498.721, 278.823 498.510 C 279.226 498.108, 262.490 465.315, 260.894 463.380 C 260.386 462.764, 258.290 462.020, 256.235 461.728 C 254.181 461.436, 251.633 460.849, 250.574 460.424 C 249.515 459.999, 255.351 468.481, 263.544 479.272 M 401.842 463.500 C 401.487 465.700, 400.899 468.400, 400.535 469.500 C 400.171 470.600, 400.603 470.239, 401.496 468.698 C 402.388 467.156, 402.977 464.456, 402.803 462.698 C 402.493 459.564, 402.474 459.580, 401.842 463.500 M 551.966 472.250 C 548.791 475.634, 540.407 489.855, 535.831 499.620 C 531.115 509.683, 524.800 527.867, 525.581 529.131 C 525.876 529.609, 526.998 530, 528.073 530 C 529.148 530, 530.952 530.563, 532.083 531.250 C 533.894 532.351, 534.422 532.150, 536.500 529.571 C 540.630 524.446, 540.319 521.734, 535.500 520.847 C 533.198 520.424, 532.355 516.928, 533.917 514.279 C 534.751 512.864, 534.847 513.135, 534.387 515.606 C 533.757 518.986, 534.755 519.858, 538.883 519.537 C 540.942 519.377, 541.722 518.074, 544.630 509.926 C 548.649 498.664, 554.492 486.262, 559.372 478.633 C 561.328 475.575, 562.517 472.819, 562.014 472.509 C 561.512 472.198, 559.061 475.444, 556.568 479.722 C 554.076 484, 552.028 486.970, 552.018 486.322 C 552.008 485.674, 553.636 482.397, 555.635 479.040 C 557.635 475.684, 559.026 472.692, 558.726 472.392 C 558.426 472.092, 556.288 475.031, 553.976 478.923 C 551.664 482.816, 549.373 486, 548.886 486 C 547.294 486, 547.947 484.341, 551.097 480.388 C 556.390 473.744, 557.751 470, 554.872 470 C 554.435 470, 553.128 471.012, 551.966 472.250 M 694.500 476.698 C 688.796 477.454, 680.594 480.180, 673.945 483.528 C 646.858 497.169, 626.220 529.505, 620.351 567.500 C 618.241 581.163, 619.008 605.315, 621.908 616.500 C 630.370 649.136, 649.968 670.173, 677.697 676.387 C 687.663 678.620, 702.798 678.481, 712.226 676.070 C 737.373 669.638, 759.392 649.329, 774.896 618.262 C 780.269 607.497, 784.378 596.213, 785.370 589.500 C 786.139 584.292, 784.855 587.049, 781.961 596.814 C 780.769 600.836, 779.583 603.916, 779.324 603.657 C 779.065 603.399, 779.963 599.658, 781.318 595.344 C 785.042 583.487, 787.870 567.344, 786.024 568.485 C 785.461 568.833, 785 570.187, 785 571.494 C 785 577.099, 777.554 605.888, 776.402 604.736 C 776.144 604.477, 777.041 600.437, 778.397 595.759 C 779.753 591.080, 781.123 585.508, 781.443 583.376 C 781.762 581.244, 780.940 583.016, 779.615 587.313 C 778.291 591.610, 776.864 595.435, 776.444 595.813 C 776.025 596.191, 775.976 595.681, 776.336 594.681 C 777.580 591.224, 781.086 572.753, 780.593 572.259 C 780.069 571.736, 779.772 572.881, 777.930 582.500 C 776.639 589.242, 772.055 604.388, 771.480 603.813 C 771.274 603.607, 772.200 599.674, 773.538 595.072 C 774.876 590.470, 776.201 584.409, 776.482 581.603 C 776.905 577.390, 776.662 577.895, 775.087 584.500 C 772.853 593.868, 767.515 608.944, 765.480 611.628 C 764.700 612.657, 765.418 610.230, 767.076 606.233 C 770.123 598.889, 774.060 585.017, 773.929 582.090 C 773.889 581.216, 772.840 584.100, 771.596 588.500 C 763.955 615.527, 752.755 633.412, 734.259 648.123 C 726.820 654.039, 714.818 660.516, 709.500 661.484 C 706.710 661.992, 706.746 661.934, 710.011 660.650 C 738.131 649.598, 760.240 623.894, 768.691 592.429 C 771.120 583.386, 771.360 580.849, 771.382 564 C 771.404 547.068, 771.181 544.672, 768.756 535.732 C 764.148 518.748, 753.923 501.395, 742.644 491.420 C 739.815 488.918, 733.450 484.915, 728.500 482.525 C 716.851 476.901, 706.432 475.115, 694.500 476.698 M 691.948 480.494 C 684.522 481.975, 674.194 486.386, 667.813 490.802 C 661.824 494.947, 650.663 506.490, 645.270 514.117 C 639.112 522.826, 631.559 538.828, 629.042 548.500 C 621.699 576.715, 625.899 609.685, 639.259 628.710 C 657.498 654.681, 680.269 663.200, 708 654.425 C 718.584 651.075, 727.202 645.696, 736.013 636.940 C 756.674 616.407, 767.057 590.329, 767.060 558.962 C 767.063 537.250, 762.044 520.774, 750.441 504.406 C 736.327 484.495, 715.200 475.858, 691.948 480.494 M 514.678 486.656 C 513.344 487.989, 514.056 488.700, 517.866 489.842 C 522.626 491.268, 524 491.298, 524 489.975 C 524 488.437, 515.812 485.521, 514.678 486.656 M 522.256 497.735 C 516.624 509.932, 512.265 524.208, 509.833 538.417 C 508.047 548.852, 507.844 553.092, 508.340 569.500 C 508.657 579.950, 509.367 590.075, 509.919 592 C 510.742 594.869, 510.814 594.329, 510.320 589 C 509.989 585.425, 509.739 575.525, 509.765 567 C 509.841 542.452, 513.634 522.620, 522.479 500.520 C 524.896 494.481, 526.746 489.412, 526.589 489.255 C 526.432 489.099, 524.482 492.915, 522.256 497.735 M 511 495.441 C 511 497.271, 511.662 497.658, 516.258 498.521 C 519.242 499.080, 520 498.916, 520 497.709 C 520 496.877, 518.583 495.702, 516.851 495.098 C 512.615 493.621, 511 493.716, 511 495.441 M 680.604 495.593 C 673.731 497.256, 664.508 501.741, 657.692 506.733 C 646.742 514.755, 636.224 532.220, 631.335 550.500 C 628.968 559.352, 628.654 562.394, 628.598 577 C 628.548 590.019, 628.922 594.942, 630.372 600.336 C 639.145 632.970, 658.064 649.575, 684.262 647.635 C 708.418 645.847, 729.079 629.315, 742.231 601.249 C 748.053 588.824, 750.345 576.589, 749.675 561.500 C 748.655 538.518, 742.845 523.760, 729.598 510.501 C 715.130 496.019, 699.057 491.128, 680.604 495.593 M 360.921 497.367 C 354.617 499.621, 351.143 502.874, 347.537 509.902 C 345.023 514.801, 345.716 525.388, 348.838 529.772 C 351.434 533.419, 353.714 534.203, 351.908 530.828 C 351.269 529.634, 350.728 525.922, 350.705 522.578 C 350.614 509.090, 361.479 498.947, 373.549 501.254 C 377.021 501.918, 376.176 500.100, 371.962 497.840 C 367.971 495.699, 365.842 495.608, 360.921 497.367 M 507 504.247 C 507 506.277, 508.845 507.595, 512.711 508.327 C 516.388 509.023, 517.481 508.040, 515.715 505.624 C 514.017 503.303, 507 502.193, 507 504.247 M 364.453 507.480 C 361.729 508.847, 358.474 511.484, 357.220 513.339 C 349.804 524.309, 357.304 540.062, 369.898 539.965 C 372.429 539.945, 375.582 539.329, 376.905 538.596 C 379.103 537.378, 378.873 537.306, 374.230 537.752 C 369.757 538.182, 368.841 537.932, 366.575 535.666 C 363.101 532.192, 363.334 529.480, 367.500 524.868 C 371.453 520.492, 372.087 516.002, 369.465 510.932 C 368.074 508.243, 368.080 507.906, 369.529 507.351 C 370.408 507.013, 372.336 507.278, 373.814 507.940 C 376.177 508.998, 376.320 508.966, 375 507.678 C 372.224 504.969, 369.554 504.919, 364.453 507.480 M 504.579 512.754 C 504.261 513.073, 504 514.140, 504 515.127 C 504 517.645, 511.731 520.038, 513.063 517.932 C 513.562 517.144, 513.976 516.205, 513.985 515.844 C 514.006 514.918, 505.282 512.052, 504.579 512.754 M 674.105 513.518 C 659.331 517.667, 647.959 527.800, 639.944 543.953 C 635.864 552.177, 634.032 560.855, 634.015 572.040 C 633.989 588.489, 638.919 601.680, 648.866 611.783 C 666.139 629.327, 690.158 629.065, 709.229 611.126 C 717.243 603.589, 721.835 596.411, 725.629 585.490 C 728.097 578.388, 728.411 576.055, 728.453 564.500 C 728.493 553.432, 728.156 550.505, 726.188 544.810 C 719.522 525.517, 704.871 513.326, 687.249 512.407 C 682.206 512.144, 677.616 512.532, 674.105 513.518 M 451.968 516.583 C 451.951 517.087, 451.285 522, 450.488 527.500 C 444.331 569.995, 455.879 614.705, 479.417 639.500 L 484.163 644.500 479.565 638.304 C 465.786 619.739, 456.469 598.175, 452.428 575.500 C 450.293 563.519, 450.021 536.563, 451.915 524.665 C 452.601 520.355, 452.901 516.568, 452.581 516.248 C 452.262 515.928, 451.986 516.079, 451.968 516.583 M 501.496 524.006 C 500.572 525.502, 501.604 526.446, 506.250 528.356 C 509.777 529.806, 510 529.789, 510 528.071 C 510 525.845, 508.347 524.376, 504.854 523.499 C 503.249 523.097, 501.936 523.295, 501.496 524.006 M 667.327 528.398 C 659.981 531.128, 651.351 536.476, 649.892 539.203 C 648.287 542.200, 649.409 543.614, 654.389 544.868 C 662.572 546.928, 667.940 553.681, 668.010 562 C 668.042 565.810, 669.336 567.101, 673.713 567.688 C 680.640 568.617, 688.388 565.638, 694.482 559.701 C 703.431 550.983, 704.052 542.491, 696.364 533.981 C 692.283 529.464, 684.072 525.973, 677.712 526.052 C 675.396 526.081, 670.722 527.136, 667.327 528.398 M 500 534.443 C 500 536.215, 503.804 539, 506.223 539 C 508.754 539, 508.422 537.477, 505.365 535.073 C 502.296 532.658, 500 532.389, 500 534.443 M 500.036 546.393 C 502.005 548.266, 506 549.411, 506 548.103 C 506 546.808, 502.709 545, 500.351 545 C 498.796 545, 498.756 545.176, 500.036 546.393 M 650.615 550.088 C 646.635 553.219, 644.677 557.806, 644.677 564 C 644.677 575.948, 652.918 582.871, 659.260 576.250 C 664.658 570.614, 666.593 560.981, 663.520 555.039 C 661.740 551.596, 657.387 548, 655 548 C 654.048 548, 652.075 548.940, 650.615 550.088 M 516.063 569.250 C 516.117 572.838, 516.269 573.146, 517.040 571.227 C 517.929 569.012, 518.050 568.994, 521.726 570.521 C 529.028 573.553, 529.348 574.321, 530.154 590.743 C 531.744 623.153, 539.856 650.299, 554.391 671.850 C 556.376 674.793, 557.990 677.493, 557.978 677.850 C 557.942 678.892, 554.330 674.119, 548.535 665.375 C 534.841 644.710, 527.641 624.292, 523.217 593.582 C 521.431 581.183, 519.675 577.887, 518.420 584.577 C 516.586 594.352, 520.937 620.269, 526.970 635.500 C 533.193 651.214, 545.407 670.618, 553.909 678.299 C 557.634 681.664, 565.804 686.543, 566.502 685.820 C 566.672 685.644, 564.346 682.141, 561.334 678.035 C 543.155 653.256, 534.152 625.924, 532.085 589.238 C 531.517 579.149, 530.775 573.434, 529.897 572.376 C 528.837 571.098, 517.614 565, 516.323 565 C 516.145 565, 516.029 566.913, 516.063 569.250 M 787.310 581.500 C 786.656 587.550, 785.154 595.650, 783.973 599.500 C 781.135 608.747, 772.446 626.535, 765.897 636.500 C 752.646 656.667, 729.705 673.482, 708.442 678.616 C 701.143 680.378, 684.370 680.925, 677.652 679.620 C 671.156 678.358, 674.430 680.604, 681.221 682.068 C 689.732 683.903, 704.037 683.661, 712 681.547 C 737.921 674.667, 759.668 655.563, 775.489 625.774 C 783.457 610.771, 789.509 588.033, 788.802 575.755 C 788.552 571.396, 788.297 572.375, 787.310 581.500 M 372.840 599.022 C 362.239 604.622, 360.096 618.458, 368.514 626.950 C 372.319 630.789, 373.579 630.654, 372.028 626.574 C 370.590 622.791, 370.747 615.540, 372.351 611.702 C 374.069 607.591, 380.290 602.092, 384.082 601.334 C 387.465 600.657, 387.809 599.503, 385.066 598.035 C 382.113 596.455, 376.904 596.875, 372.840 599.022 M 571.090 607.843 C 570.972 614.856, 574.240 630.662, 578.087 641.688 C 588.134 670.480, 607.269 698.944, 623.005 708.503 C 626.171 710.426, 629.059 712, 629.423 712 C 629.787 712, 625.171 707.163, 619.166 701.250 C 602.865 685.200, 592.037 669.300, 583.988 649.593 C 579.482 638.561, 574.608 621.833, 572.598 610.500 C 571.181 602.511, 571.179 602.507, 571.090 607.843 M 382.859 606.158 C 372.655 612.074, 372.428 628.356, 382.490 632.560 C 384.385 633.352, 387.413 633.956, 389.218 633.901 C 392.412 633.805, 392.379 633.765, 388 632.410 C 383.236 630.936, 380 627.942, 380 625.008 C 380 623.750, 381.274 622.917, 384.403 622.129 C 388.821 621.016, 394 616.340, 394 613.462 C 394 612.701, 394.956 611.188, 396.124 610.099 L 398.247 608.121 394.874 606.064 C 390.609 603.464, 387.461 603.489, 382.859 606.158 M 769.624 606.539 C 768.659 609.053, 768.943 609.702, 770.122 607.675 C 770.706 606.671, 770.973 605.639, 770.715 605.382 C 770.458 605.124, 769.966 605.645, 769.624 606.539 M 774.111 609.111 C 773.495 610.878, 773.166 612.499, 773.380 612.713 C 773.594 612.927, 774.273 611.656, 774.889 609.889 C 775.505 608.122, 775.834 606.501, 775.620 606.287 C 775.406 606.073, 774.727 607.344, 774.111 609.111 M 763.550 619.901 C 762.129 622.705, 761.156 625, 761.388 625 C 762.190 625, 767.175 615.841, 766.655 615.322 C 766.369 615.036, 764.972 617.096, 763.550 619.901 M 758.707 635.500 C 757.171 637.425, 756.222 639, 756.597 639 C 757.339 639, 759.434 636.531, 761.052 633.750 C 762.642 631.018, 761.757 631.678, 758.707 635.500 M 191.750 636.662 C 192.438 636.940, 193.563 636.940, 194.250 636.662 C 194.938 636.385, 194.375 636.158, 193 636.158 C 191.625 636.158, 191.063 636.385, 191.750 636.662 M 550.603 643 C 551.684 647.409, 557.040 660.357, 559.705 665 C 565.941 675.870, 579.832 692, 582.957 692 C 584.506 692, 584.461 691.936, 578.328 685.475 C 566.676 673.200, 560.849 664.096, 551.140 643 L 549.989 640.500 550.603 643 M 738.250 659.115 C 734.841 661.298, 733.738 662.764, 736.750 661.108 C 739.044 659.847, 742.639 657.068, 742 657.049 C 741.725 657.040, 740.038 657.970, 738.250 659.115 M 400 662.499 C 395.875 663.211, 376.750 666.342, 357.500 669.457 C 338.250 672.572, 321.922 675.310, 321.215 675.542 C 320.201 675.875, 320.253 676.589, 321.465 678.932 C 323.444 682.759, 323.418 686.958, 321.398 689.842 C 319.810 692.109, 319.825 692.124, 323.148 691.531 C 326.845 690.872, 353.513 686.797, 402.750 679.367 C 420.488 676.691, 434.993 674.275, 434.985 674 C 434.977 673.725, 430.439 670.688, 424.902 667.250 C 413.770 660.339, 413.176 660.226, 400 662.499 M 703.813 662.683 C 704.534 662.972, 705.397 662.936, 705.729 662.604 C 706.061 662.272, 705.471 662.036, 704.417 662.079 C 703.252 662.127, 703.015 662.364, 703.813 662.683 M 502.500 667.590 C 501.950 667.783, 465.275 673.333, 421 679.923 C 309.046 696.588, 316.335 695.377, 312.932 697.892 C 309.408 700.498, 305.351 701.269, 280.500 704.058 C 258.378 706.541, 247.416 706.327, 241.500 703.296 C 239.300 702.169, 231.689 700.272, 224.586 699.079 C 217.483 697.886, 209.114 696.049, 205.988 694.996 C 196.615 691.838, 171.732 679.582, 167.946 676.257 L 164.414 673.157 164.824 682.828 C 165.049 688.148, 165.672 693.336, 166.209 694.357 C 166.746 695.379, 171.081 698.001, 175.843 700.185 C 180.604 702.369, 190.575 707.032, 198 710.549 C 218.105 720.070, 218.882 720.200, 255.942 720.292 C 290.445 720.378, 297.842 719.802, 331 714.451 C 342.825 712.542, 385.800 706.028, 426.500 699.975 C 516.808 686.544, 540.382 682.928, 540.893 682.430 C 541.109 682.220, 540.434 681.746, 539.393 681.379 C 535.395 679.968, 518.291 672.658, 514 670.526 C 509.433 668.258, 504.318 666.952, 502.500 667.590 M 699.750 669.662 C 700.438 669.940, 701.563 669.940, 702.250 669.662 C 702.938 669.385, 702.375 669.158, 701 669.158 C 699.625 669.158, 699.063 669.385, 699.750 669.662 M 705.813 671.683 C 706.534 671.972, 707.397 671.936, 707.729 671.604 C 708.061 671.272, 707.471 671.036, 706.417 671.079 C 705.252 671.127, 705.015 671.364, 705.813 671.683 M 702 675 C 698.608 675.714, 698.593 675.738, 701.500 675.769 C 703.150 675.786, 705.625 675.440, 707 675 C 710.279 673.950, 706.989 673.950, 702 675 M 694.750 676.662 C 695.438 676.940, 696.563 676.940, 697.250 676.662 C 697.938 676.385, 697.375 676.158, 696 676.158 C 694.625 676.158, 694.063 676.385, 694.750 676.662" stroke="none" fill="black" fill-rule="evenodd"/>
</svg>