<svg xmlns="http://www.w3.org/2000/svg" width="500" height="500" viewBox="0 0 500 500" version="1.1">
	<path d="M 313.674 149.750 C 305.577 158.412, 297.126 168.280, 294.894 171.677 C 292.279 175.659, 288.746 183.831, 284.951 194.677 C 278.524 213.045, 276.536 216, 270.604 216 C 261.553 216, 234.909 226.560, 219.520 236.246 C 202.028 247.257, 183.180 266.736, 170.608 286.798 C 166.907 292.703, 162.584 304.998, 161.042 314 C 159.392 323.633, 158.328 325.596, 149.998 334.366 C 141.348 343.471, 134.717 346.949, 124.536 347.719 C 116.222 348.347, 104.410 346.144, 99.240 343 C 93.529 339.527, 94.608 337.449, 108.355 325.444 C 113.915 320.589, 114.458 317.300, 110.250 313.968 C 102.424 307.770, 82.911 317.877, 76.005 331.704 C 73.178 337.365, 72.300 344.896, 73.991 348.978 C 76.050 353.949, 82.209 358.675, 89.603 360.959 C 104.252 365.484, 135.733 366.042, 151.500 362.056 C 165.509 358.515, 172.102 358.379, 183.763 361.390 C 193.126 363.808, 196.669 364.123, 225.250 365.078 C 261.364 366.285, 266.080 365.985, 268.982 362.295 C 271.512 359.080, 271.509 357.917, 268.963 354.681 C 267.331 352.605, 264.987 351.654, 257.145 349.886 L 247.364 347.680 251.124 338.959 C 256.203 327.178, 258.223 318.956, 258.238 310 C 258.265 294.020, 249.722 284.945, 231.934 282.059 C 224.173 280.800, 220 280.715, 220 281.818 C 220 282.268, 223.799 283.144, 228.443 283.766 C 238.948 285.171, 245.980 288.129, 250.371 292.989 C 255.212 298.348, 256.349 302.662, 255.747 313.404 C 255.208 323.030, 251.757 334.373, 246.514 343.754 C 245.102 346.280, 244.296 348.656, 244.723 349.033 C 245.151 349.411, 249.775 350.561, 255 351.589 C 261.911 352.948, 265.138 354.089, 266.841 355.775 C 268.976 357.888, 269.054 358.286, 267.723 360.296 C 265.520 363.622, 260.776 363.918, 226 362.894 C 197.523 362.056, 193.571 361.729, 184.816 359.484 C 172.330 356.281, 168.448 356.353, 150.423 360.113 C 136.129 363.096, 134.832 363.200, 119.657 362.579 C 94.371 361.544, 84.689 358.965, 78.155 351.524 C 74.330 347.167, 74.029 342.670, 77.027 334.657 C 81.872 321.708, 101.775 309.948, 108.976 315.779 C 111.132 317.525, 111.288 318.073, 110.268 320.311 C 109.630 321.711, 106.652 324.671, 103.650 326.889 C 94.073 333.964, 91.849 339.102, 96.497 343.410 C 100.797 347.394, 109.268 349.500, 121 349.500 C 130.672 349.500, 132.013 349.256, 138 346.405 C 145.476 342.844, 155.350 333.462, 159.299 326.166 C 160.688 323.600, 162.356 318.575, 163.005 315 C 166.235 297.230, 173.032 284.358, 189.367 265.082 C 202.284 249.838, 213.734 241.160, 235 230.493 C 250.796 222.570, 259.711 219.341, 268.294 218.432 C 278.795 217.321, 280.189 215.567, 287.116 194.772 C 291.756 180.843, 293.755 176.595, 298.993 169.523 C 302.585 164.674, 323.688 141.828, 325.169 141.184 C 325.569 141.010, 325.658 142.360, 325.366 144.184 C 324.500 149.615, 328.188 153.940, 336.539 157.286 C 342.318 159.601, 344.978 161.543, 352.205 168.722 C 362.300 178.750, 363.596 181.099, 362.083 186.629 C 360.334 193.023, 357.403 196.762, 351.989 199.506 C 345.420 202.834, 344.801 204.539, 348.849 208.156 C 351.190 210.248, 353.060 211, 355.922 211 C 359.549 211, 360.341 210.409, 367.643 202.250 C 396.923 169.532, 416.622 149, 418.734 149 C 421.049 149, 424 152.942, 424 156.035 C 424 157.705, 423.243 160.225, 422.319 161.636 C 421.109 163.483, 420.919 164.648, 421.642 165.794 C 422.445 167.068, 421.124 168.894, 415.024 174.943 C 405.911 183.977, 403.409 187.531, 392.526 206.895 C 382.915 223.997, 374.542 236.916, 369.676 242.151 C 367.810 244.160, 361.126 249.619, 354.823 254.282 C 336.337 267.961, 328.474 278.955, 327.319 292.739 C 326.361 304.166, 331.972 339.234, 335.666 344.912 C 338.185 348.784, 340.015 349.867, 345.282 350.600 C 350.005 351.258, 354 354.425, 354 357.512 C 354 362.824, 334.868 363.043, 329.283 357.796 C 328.063 356.650, 325.857 352.515, 324.380 348.606 C 320.739 338.968, 307.286 312.035, 304.723 309.250 C 301.550 305.803, 298.760 306.491, 291.317 312.552 C 287.568 315.605, 281.800 320.189, 278.500 322.739 C 267.668 331.108, 260.993 337.180, 261.580 338.129 C 261.897 338.642, 264.709 336.871, 267.828 334.193 C 278.489 325.040, 299.282 309, 300.487 309 C 301.149 309, 302.385 309.787, 303.234 310.750 C 305.748 313.599, 319.759 341.766, 321.975 348.425 C 325.044 357.646, 328.764 361.602, 335.727 363.047 C 345.815 365.141, 356 362.577, 356 357.942 C 356 353.123, 349.940 348, 344.238 348 C 340.242 348, 337.300 344.859, 335.558 338.732 C 332.609 328.363, 329.681 308.365, 329.591 297.981 C 329.504 287.962, 329.661 287.135, 332.882 280.590 C 336.942 272.340, 345.996 262.855, 357.500 254.799 C 361.900 251.718, 367.230 247.485, 369.345 245.392 C 374.995 239.801, 384.700 225.406, 393.544 209.500 C 404.436 189.910, 408.159 184.620, 417.349 175.676 C 424.261 168.948, 425.230 167.599, 424.263 166.050 C 423.409 164.682, 423.459 163.790, 424.468 162.349 C 425.754 160.513, 426.340 157.429, 426.111 153.705 C 425.949 151.081, 421.464 147, 418.742 147 C 416.302 147, 402.206 160.723, 385.358 179.500 C 359.400 208.431, 358.833 209, 355.924 209 C 354.377 209, 351.868 207.930, 350.347 206.622 L 347.583 204.245 352.693 201.656 C 355.503 200.231, 358.741 197.874, 359.887 196.417 C 362.859 192.638, 365.433 183.863, 364.574 180.439 C 364.149 178.746, 359.731 173.517, 353.537 167.375 C 345.740 159.643, 342.239 156.872, 339.255 156.069 C 337.081 155.483, 333.803 153.991, 331.970 152.752 C 327.033 149.416, 326.549 146.116, 329.549 136.250 C 329.925 135.012, 329.820 134, 329.315 134 C 328.810 134, 321.772 141.088, 313.674 149.750" stroke="none" fill="black" fill-rule="evenodd"/>
</svg>