<svg xmlns="http://www.w3.org/2000/svg" width="600" height="600" viewBox="0 0 600 600" version="1.1">
	<path d="M 296.072 55.750 C 289.474 69.017, 287.612 78.742, 290.394 85.401 C 292.191 89.702, 295.536 92, 300 92 C 309.827 92, 313.705 81.002, 308.915 66.718 C 306.699 60.111, 301.156 49, 300.075 49 C 299.720 49, 297.919 52.038, 296.072 55.750 M 244.641 83.209 C 243.513 87.421, 243.983 95.067, 245.559 98.113 C 249.205 105.164, 252.339 95.988, 249.332 87.066 C 247.319 81.097, 245.588 79.673, 244.641 83.209 M 351.523 85.299 C 349.460 90.703, 349.758 100.500, 351.987 100.500 C 355.274 100.500, 357.604 89.380, 355.601 83.250 C 354.511 79.915, 353.359 80.494, 351.523 85.299 M 298.169 117.161 C 298.351 118.447, 299.175 119.500, 300 119.500 C 302.169 119.500, 301.870 115.599, 299.669 115.175 C 298.249 114.901, 297.912 115.347, 298.169 117.161 M 270.987 117.516 C 269.518 119.285, 270.538 121, 273.059 121 C 274.297 121, 275 120.314, 275 119.107 C 275 116.687, 272.498 115.695, 270.987 117.516 M 325.667 116.667 C 325.300 117.033, 325 118.158, 325 119.167 C 325 121.476, 328.807 121.666, 329.677 119.399 C 330.497 117.263, 327.269 115.064, 325.667 116.667 M 294.117 142.250 C 290.125 150.374, 286.176 156.053, 275.078 169.631 L 261.077 186.763 252.788 178.595 C 248.230 174.103, 242.025 168.567, 239 166.293 C 229.924 159.471, 215.962 151.078, 214.575 151.610 C 213.565 151.997, 213.384 155.148, 213.761 165.804 C 214.164 177.224, 213.870 181.494, 211.992 191.500 C 208.835 208.318, 209.382 207.721, 200.988 203.494 C 186.176 196.035, 168.719 190.320, 165.958 192.026 C 164.986 192.627, 165.810 195.077, 169.369 202.159 C 176.412 216.178, 178.149 228.864, 176.126 251.500 C 175.368 259.972, 176.116 259.877, 159.415 253.627 C 143.389 247.630, 130.171 245, 116.062 245 C 102.083 245, 101.497 245.788, 109.775 253.452 C 116.946 260.092, 121.243 267.921, 126.538 284 C 134.537 308.286, 141.039 319.761, 154.167 332.761 C 165.748 344.230, 177.265 351.057, 192.453 355.458 C 202.848 358.471, 220.132 360.352, 228.968 359.433 C 232.561 359.059, 235.259 359.013, 234.964 359.330 C 234.669 359.646, 229.044 361.522, 222.464 363.498 C 203.007 369.341, 191.844 375.431, 195.944 377.966 C 196.624 378.386, 200.852 378.977, 205.340 379.280 C 210.283 379.614, 217.442 381.064, 223.500 382.958 C 238.621 387.687, 245.585 388.645, 254.250 387.188 C 264.470 385.470, 272.782 381.107, 280.458 373.430 C 284.900 368.989, 287.654 367, 289.363 367 C 295.707 367, 296.406 369.437, 292.483 377.866 C 286.279 391.191, 275.416 399.119, 258.750 402.483 C 257.238 402.788, 256 403.705, 256 404.519 C 256 406.431, 259.622 406.413, 267.912 404.459 C 277.920 402.100, 286.222 397.659, 291.409 391.890 L 295.981 386.805 296.241 436.044 C 296.481 481.685, 296.628 485.363, 298.250 486.386 C 299.526 487.191, 300.474 487.191, 301.750 486.386 C 303.372 485.363, 303.519 481.690, 303.759 436.141 C 303.902 409.114, 304.222 387, 304.469 387 C 304.717 387, 307.075 389.315, 309.710 392.145 C 312.788 395.452, 316.930 398.460, 321.301 400.563 C 328.552 404.053, 340.606 406.754, 343.655 405.572 C 345.414 404.890, 345.417 404.796, 343.729 403.553 C 342.755 402.836, 340.086 401.950, 337.798 401.584 C 323.735 399.335, 306.115 382.334, 305.623 370.539 C 305.511 367.841, 305.850 367.520, 309.447 366.915 C 313.297 366.267, 313.554 366.415, 319.947 372.957 C 330.479 383.736, 343.325 388.848, 357 387.703 C 360.575 387.403, 368.765 385.563, 375.199 383.612 C 381.633 381.662, 389.958 379.799, 393.699 379.471 C 403.189 378.641, 405 378.170, 405 376.532 C 405 373.026, 394.315 368.002, 373.500 361.720 L 365.500 359.306 379 359.285 C 411.500 359.234, 437.410 346.598, 455.451 322 C 462.205 312.792, 467.311 302.135, 472.530 286.356 C 478.437 268.495, 481.985 261.996, 490.371 253.675 C 495.198 248.886, 496.935 246.535, 496.195 245.795 C 495.504 245.104, 490.358 244.917, 481.320 245.254 C 465.989 245.826, 455.011 248.230, 438.609 254.610 C 424.307 260.172, 425.312 260.332, 424.384 252.349 C 423.161 241.831, 423.630 225.313, 425.385 217.072 C 426.255 212.986, 428.863 205.868, 431.182 201.253 C 434.419 194.809, 435.095 192.677, 434.098 192.060 C 431.459 190.429, 417.355 194.833, 402.266 202.001 C 396.638 204.674, 391.847 206.555, 391.619 206.181 C 391.392 205.806, 390.216 201, 389.007 195.500 C 386.444 183.845, 385.368 166.715, 386.735 159.349 C 387.300 156.305, 387.326 153.547, 386.799 152.606 C 386.006 151.188, 385.392 151.275, 381.204 153.407 C 372.930 157.618, 358.905 168.226, 349.061 177.718 L 339.501 186.937 337.001 183.722 C 335.625 181.954, 331.125 176.529, 327 171.666 C 314.813 157.300, 309.584 149.761, 305.468 140.622 C 303.332 135.880, 301.038 132, 300.369 132 C 299.700 132, 296.887 136.613, 294.117 142.250 M 222.047 135.444 C 220.677 137.094, 221.430 139, 223.452 139 C 225.363 139, 226.119 136.343, 224.573 135.061 C 223.612 134.263, 222.943 134.364, 222.047 135.444 M 375 137.073 C 375 139.636, 378.310 139.345, 378.812 136.739 C 379.043 135.539, 378.504 135, 377.073 135 C 375.642 135, 375 135.642, 375 137.073 M 250.666 137.427 C 250.013 139.129, 252.471 141.445, 253.956 140.527 C 254.530 140.172, 255 139.009, 255 137.941 C 255 135.649, 251.508 135.235, 250.666 137.427 M 345.323 137.601 C 344.470 139.823, 347.134 141.294, 348.868 139.560 C 349.621 138.807, 349.932 137.699, 349.559 137.096 C 348.553 135.468, 346.026 135.769, 345.323 137.601 M 296.072 155.275 C 294.187 159.799, 290.195 167.775, 287.201 173 C 281.224 183.432, 279.950 185.284, 279.240 184.573 C 278.979 184.312, 280.871 180.204, 283.444 175.444 C 286.018 170.685, 287.972 166.639, 287.787 166.454 C 287.140 165.807, 271.454 184.213, 266.167 191.824 C 256.614 205.575, 249 223.469, 249 232.171 C 249 235.054, 251.093 237.222, 251.807 235.079 C 252.041 234.377, 253.052 235.535, 254.053 237.652 C 255.054 239.768, 257.252 243.075, 258.937 245 L 262.001 248.500 272.957 237 L 283.913 225.500 283.957 219.250 C 283.984 215.303, 284.416 213, 285.128 213 C 285.870 213, 286.052 214.281, 285.660 216.750 C 284.557 223.687, 286.218 223.392, 292.825 215.475 C 296.255 211.364, 299.484 208, 300 208 C 300.516 208, 303.742 211.360, 307.169 215.467 C 310.596 219.573, 313.602 222.731, 313.850 222.483 C 314.098 222.236, 314.252 219.213, 314.193 215.766 C 314.105 210.578, 314.264 209.930, 315.116 212 C 315.683 213.375, 316.168 216.975, 316.195 220 L 316.244 225.500 326.872 236.489 C 332.717 242.533, 337.619 247.677, 337.765 247.921 C 338.365 248.923, 345.117 241.342, 346.985 237.568 C 348.342 234.826, 349.009 234.152, 349.031 235.500 L 349.064 237.500 350.576 235.500 C 354.532 230.270, 345.065 206.189, 332.407 189.284 C 325.574 180.159, 313.913 166.753, 313.322 167.344 C 313.076 167.591, 314.811 171.552, 317.178 176.147 C 319.545 180.741, 321.636 184.838, 321.824 185.250 C 322.013 185.662, 321.698 186, 321.126 186 C 319.702 186, 308.827 166.464, 304.287 155.750 C 302.248 150.938, 300.337 147.011, 300.040 147.025 C 299.743 147.039, 297.958 150.752, 296.072 155.275 M 187 156 C 187 157.333, 187.667 158, 189 158 C 190.333 158, 191 157.333, 191 156 C 191 154.667, 190.333 154, 189 154 C 187.667 154, 187 154.667, 187 156 M 409 155.893 C 409 157.792, 411.283 159.384, 412.402 158.264 C 413.837 156.830, 412.907 154, 411 154 C 409.704 154, 409 154.667, 409 155.893 M 230.183 175.750 L 233.174 181.500 230.114 178 C 226.642 174.029, 226.419 174.799, 228.520 183.500 C 229.317 186.800, 229.937 190.850, 229.899 192.500 C 229.852 194.489, 229.203 193.081, 227.974 188.323 C 226.953 184.376, 225.082 178.751, 223.815 175.823 L 221.512 170.500 220.797 177 C 220.403 180.575, 219.095 188.961, 217.889 195.635 C 215.706 207.724, 215.911 214.434, 218.299 209 L 219.397 206.500 219.762 209.750 C 220.185 213.520, 222 214.176, 222 210.559 C 222 209.216, 222.450 207.840, 223 207.500 C 223.593 207.133, 224 208.296, 224 210.359 C 224 214.384, 224.830 217, 226.107 217 C 226.598 217, 227.046 215.762, 227.102 214.250 C 227.196 211.747, 227.278 211.812, 228.024 214.984 C 228.479 216.921, 230.100 219.459, 231.672 220.699 C 233.227 221.926, 235.951 224.104, 237.724 225.540 C 240.991 228.186, 243 228.121, 243 225.369 C 243 224.537, 244.428 219.550, 246.173 214.286 L 249.347 204.717 246.576 199.789 C 243.059 193.530, 243.909 192.282, 247.507 198.421 C 248.983 200.940, 250.361 203, 250.569 203 C 250.778 203, 251.633 201.677, 252.469 200.059 C 253.974 197.149, 253.930 197.043, 248.176 189.802 C 242.821 183.064, 229.419 170, 227.860 170 C 227.493 170, 228.538 172.588, 230.183 175.750 M 365.335 176.280 C 356.802 183.798, 348.189 193.644, 347.353 196.835 C 346.951 198.368, 347.331 199.741, 348.460 200.835 C 350.068 202.392, 350.286 202.342, 351.839 200.054 C 352.753 198.709, 354.332 196.684, 355.348 195.554 C 356.760 193.985, 356.688 194.327, 355.044 197 C 350.547 204.314, 350.554 204.217, 353.777 212.646 C 355.428 216.966, 357.089 221.957, 357.467 223.739 C 358.447 228.358, 359.586 228.575, 363.261 224.841 C 365.042 223.032, 366.837 221.483, 367.250 221.401 C 367.663 221.318, 368.342 221.194, 368.759 221.125 C 370.075 220.908, 372.340 216.639, 373.069 213 L 373.770 209.500 373.917 213.500 C 374.057 217.307, 374.138 217.403, 375.598 215.500 C 376.528 214.288, 377 212.056, 376.798 209.834 C 376.614 207.818, 376.809 206.382, 377.232 206.643 C 377.654 206.904, 378 208.479, 378 210.142 C 378 214.265, 380.316 213.358, 381.118 208.921 C 381.513 206.738, 381.784 206.314, 381.868 207.750 C 381.995 209.921, 383.421 210.794, 384.317 209.250 C 384.557 208.838, 383.698 202.875, 382.409 196 C 381.119 189.125, 380.050 180.688, 380.032 177.250 C 380.015 173.813, 379.655 171, 379.233 171 C 378.257 171, 374.153 181.287, 372.367 188.207 L 371.002 193.500 371.463 188 C 371.716 184.975, 372.233 180.700, 372.611 178.500 L 373.298 174.500 371.133 177 L 368.968 179.500 370.179 176.500 C 370.846 174.850, 371.817 172.927, 372.338 172.226 C 374.848 168.849, 371.702 170.670, 365.335 176.280 M 243.483 181.890 C 249.524 188.001, 254.617 193, 254.801 193 C 256.932 193, 238.972 174.081, 234.843 171.975 C 233.554 171.318, 237.442 175.780, 243.483 181.890 M 360.302 175.839 C 351.376 183.282, 342.915 193.248, 344.323 194.657 C 344.650 194.984, 346.158 193.732, 347.674 191.876 C 349.190 190.019, 354.240 184.563, 358.896 179.750 C 363.552 174.938, 367.079 171, 366.733 171 C 366.387 171, 363.493 173.177, 360.302 175.839 M 181.360 177.504 C 180.510 179.720, 183.561 182.839, 185.087 181.313 C 186.643 179.757, 185.807 176.587, 183.735 176.188 C 182.778 176.003, 181.709 176.595, 181.360 177.504 M 413.958 177.550 C 412.896 178.831, 412.961 179.390, 414.336 180.764 C 415.877 182.305, 416.121 182.307, 417.637 180.792 C 419.454 178.974, 418.844 176, 416.654 176 C 415.879 176, 414.666 176.698, 413.958 177.550 M 138.380 181.452 C 137.617 183.441, 138.747 185, 140.952 185 C 142.918 185, 143.979 183.283, 143.269 181.250 C 142.668 179.526, 139.062 179.675, 138.380 181.452 M 457.701 180.632 C 457.316 181.018, 457 182.190, 457 183.236 C 457 184.638, 457.593 185.055, 459.250 184.820 C 460.721 184.611, 461.500 183.812, 461.500 182.514 C 461.500 180.530, 459.028 179.306, 457.701 180.632 M 98.666 190.427 C 97.904 192.414, 100.731 194.669, 102.175 193.225 C 103.556 191.844, 102.522 189, 100.638 189 C 99.855 189, 98.968 189.642, 98.666 190.427 M 497.336 190.567 C 497.005 191.429, 497.247 192.647, 497.874 193.274 C 499.282 194.682, 502.616 191.806, 501.559 190.096 C 500.561 188.481, 498.028 188.764, 497.336 190.567 M 275.587 192.843 C 274.633 194.682, 274.075 196.408, 274.346 196.680 C 275.154 197.488, 278.225 192.174, 277.755 190.782 C 277.510 190.057, 276.568 190.953, 275.587 192.843 M 280.457 195.313 C 279.119 198.235, 277.790 202.172, 277.503 204.063 C 276.916 207.923, 277.159 207.458, 281.057 197.250 C 284.294 188.772, 283.954 187.674, 280.457 195.313 M 319.663 199 C 323.395 209.009, 324.640 211.481, 323.441 206.498 C 322.265 201.612, 319.106 193.525, 317.560 191.440 C 316.768 190.373, 317.715 193.775, 319.663 199 M 322.548 192.750 C 322.968 193.713, 324.896 198.662, 326.833 203.750 C 330.637 213.741, 332.869 216.292, 330.334 207.750 C 328.678 202.172, 323.372 191, 322.379 191 C 322.053 191, 322.129 191.787, 322.548 192.750 M 287.646 197.616 C 285.952 201.169, 284.118 211.047, 285.363 209.913 C 286.028 209.307, 289.964 194.686, 289.576 194.263 C 289.456 194.132, 288.588 195.641, 287.646 197.616 M 311.112 196.750 C 312.244 200.143, 313 200.921, 313 198.691 C 313 197.971, 312.331 196.509, 311.514 195.441 C 310.154 193.665, 310.120 193.777, 311.112 196.750 M 272.540 200.107 C 268.945 209.988, 268.162 213.636, 269.861 212.586 C 270.981 211.894, 274.323 199.990, 273.600 199.267 C 273.296 198.963, 272.819 199.341, 272.540 200.107 M 185 207.596 C 185 207.923, 185.825 209.386, 186.833 210.846 C 190.200 215.722, 204.166 243.167, 203.579 243.754 C 202.758 244.575, 202.802 244.647, 196.730 232.500 C 191.748 222.535, 185.945 213.682, 187.380 218.238 C 187.681 219.194, 188.193 222.344, 188.516 225.238 L 189.104 230.500 185.643 221.627 C 181.705 211.530, 177.865 206.005, 180.748 214.583 C 182.140 218.727, 182.415 224.609, 182.496 252 C 182.586 282.335, 182.740 285.033, 184.812 292.500 C 187.338 301.605, 192.417 312.839, 197.054 319.578 C 204.283 330.086, 217.534 340.718, 229.847 345.892 C 236.399 348.646, 237.825 347.965, 231.847 344.938 C 219.082 338.474, 207.186 329.123, 200.884 320.600 C 195.748 313.655, 197.802 314.838, 207.250 324.268 C 212.338 329.346, 218.070 334.377, 219.989 335.448 C 222.895 337.070, 222.091 335.848, 215.185 328.146 C 199.939 311.142, 193.962 299.493, 190.469 279.975 C 188.498 268.965, 187.479 250.415, 188.570 245.423 C 189.224 242.430, 189.588 245.649, 190.105 259 C 190.642 272.889, 191.299 278.474, 193.288 286.070 C 195.845 295.837, 200.850 306.947, 206.320 315 C 213.008 324.845, 231.664 342, 235.683 342 C 236.487 342, 233.364 338.288, 228.742 333.750 C 220.007 325.174, 210.438 313.004, 205.115 303.700 C 201.116 296.711, 196.985 285.707, 197.054 282.227 C 197.093 280.232, 197.583 280.984, 198.877 285.028 C 205.616 306.082, 224.118 329.194, 242.500 339.520 C 248.290 342.773, 247.824 342.139, 239.200 335.034 C 229.963 327.425, 211.176 302.972, 212.202 299.895 C 212.428 299.217, 213.798 300.685, 215.246 303.157 C 221.086 313.122, 236.254 329.920, 242.371 333.197 C 244.873 334.538, 243.969 333.049, 238.001 326 C 228.153 314.368, 217.128 297.538, 218.475 296.192 C 219.121 295.546, 218.786 295.080, 223.728 303.500 C 227.517 309.956, 239.794 325.539, 240.520 324.813 C 241.406 323.927, 238.701 314.227, 236.564 310.627 C 231.865 302.711, 228.869 296.798, 229.325 296.341 C 229.578 296.088, 231.186 298.330, 232.899 301.323 C 234.612 304.317, 236.685 307.323, 237.506 308.005 C 238.791 309.072, 239 308.653, 239 305.009 C 239 302.679, 239.750 296.138, 240.667 290.474 L 242.334 280.176 238.330 275.338 C 229.968 265.233, 219.746 250.921, 220.413 250.253 C 220.796 249.871, 221.422 250.061, 221.804 250.676 C 224.948 255.730, 242.701 277.885, 243.429 277.663 C 243.941 277.508, 245.161 275.491, 246.142 273.182 L 247.925 268.984 244.712 265.324 C 242.190 262.450, 241.972 261.916, 243.694 262.837 C 244.901 263.483, 246.165 264.458, 246.503 265.005 C 248.545 268.309, 254.005 261.736, 252.123 258.241 C 250.763 255.715, 237.689 243.346, 229.130 236.486 C 225.076 233.238, 222.265 230.412, 222.882 230.206 C 224.434 229.689, 235.780 238.754, 246.174 248.816 C 254.461 256.838, 257 258.069, 257 254.064 C 257 251.612, 239.384 234.847, 228.934 227.355 C 216.317 218.308, 193.766 205.900, 192.409 207.258 C 192.203 207.464, 197.764 211.547, 204.767 216.330 C 220.597 227.141, 221.499 227.835, 220.735 228.599 C 220.394 228.939, 213.902 224.960, 206.308 219.756 C 190.340 208.813, 185 205.766, 185 207.596 M 395.465 212.284 C 377.829 221.452, 359.523 235.082, 348.524 247.237 C 342.873 253.481, 342.228 254.828, 344.029 256.629 C 344.735 257.335, 347.956 254.778, 354.279 248.491 C 363.154 239.668, 374.953 230.391, 396.750 215.100 C 402.387 211.146, 407 207.705, 407 207.455 C 407 206.476, 405.138 207.255, 395.465 212.284 M 407.492 210.547 C 384.789 224.218, 348 254.802, 348 260.004 C 348 261.013, 348.788 263.241, 349.750 264.955 L 351.500 268.072 359.651 259.286 C 364.134 254.454, 368.090 250.781, 368.441 251.124 C 368.793 251.467, 365.767 255.292, 361.716 259.624 C 357.666 263.956, 354.046 268.329, 353.672 269.341 C 352.972 271.238, 355.595 278, 357.031 278 C 357.473 278, 362.618 271.700, 368.465 264 C 374.311 256.300, 379.563 250, 380.135 250 C 381.349 250, 374.306 260.137, 365.294 271.361 C 358.194 280.204, 357.320 282.409, 358.954 287.360 C 359.583 289.266, 360.419 295.253, 360.812 300.663 L 361.526 310.500 366.418 303.238 C 369.108 299.244, 371.498 296.165, 371.728 296.395 C 372.339 297.006, 369.285 302.691, 364.956 309 C 362.881 312.025, 360.883 316.075, 360.517 318 C 360.150 319.925, 359.609 322.400, 359.313 323.500 C 358.259 327.422, 367.051 317.676, 374.199 307 C 378.066 301.225, 381.672 296.335, 382.212 296.134 C 384.604 295.244, 375.919 308.702, 365.294 322.352 C 358.324 331.305, 357.400 332.880, 360.013 331.352 C 366.405 327.615, 382.829 308.800, 386.290 301.250 C 387.498 298.614, 389.239 298.180, 388.294 300.750 C 385.401 308.624, 363.321 334.190, 354.656 339.700 C 347.846 344.030, 351.686 343.414, 359.151 338.980 C 368.150 333.634, 381.695 320.744, 387.426 312.073 C 393.125 303.450, 399.627 290.368, 401.079 284.602 C 401.716 282.071, 402.634 280, 403.119 280 C 404.411 280, 404.250 280.916, 401.569 288.798 C 396.255 304.422, 385.070 321.082, 371.026 334.294 C 366.592 338.465, 363.440 342.154, 364.009 342.506 C 365.631 343.508, 376.866 334.945, 384.378 326.982 C 397.039 313.561, 402.965 302.258, 407.908 282.105 C 409.445 275.837, 410.977 271.153, 411.312 271.696 C 411.648 272.239, 410.609 277.995, 409.003 284.487 C 404.261 303.663, 396.991 316.992, 384.650 329.139 C 380.816 332.913, 378.134 336, 378.690 336 C 380.567 336, 388.463 329.690, 394.862 323.076 C 402.580 315.099, 401.272 318.432, 393.309 327.033 C 386.835 334.026, 378.308 340.357, 369.250 344.896 C 362.167 348.446, 361.159 349.561, 366.847 347.554 C 384.246 341.415, 400.394 327.100, 408.603 310.538 C 416.825 293.950, 417.297 291.012, 417.615 254.500 C 417.819 230.998, 418.271 220.973, 419.315 216.750 C 420.097 213.588, 420.548 211, 420.316 211 C 420.084 211, 418.588 213.813, 416.992 217.250 C 413.882 223.943, 412.020 233.161, 412.008 241.917 C 412.003 244.896, 411.723 247.056, 411.383 246.717 C 410.180 245.513, 410.990 226.351, 412.450 221.501 C 413.262 218.802, 413.741 216.408, 413.515 216.181 C 412.703 215.369, 406.749 225.749, 399.855 239.996 C 395.997 247.969, 392.651 254.682, 392.420 254.913 C 388.621 258.712, 404.052 225.065, 411.307 213.731 C 413.338 210.557, 415 207.745, 415 207.481 C 415 206.397, 413.083 207.180, 407.492 210.547 M 150.701 214.632 C 150.316 215.018, 150 216.190, 150 217.236 C 150 218.638, 150.593 219.055, 152.250 218.820 C 153.721 218.611, 154.500 217.812, 154.500 216.514 C 154.500 214.530, 152.028 213.306, 150.701 214.632 M 446.364 215.493 C 446.018 216.396, 446.214 217.614, 446.800 218.200 C 448.324 219.724, 451.210 218.331, 450.812 216.265 C 450.369 213.963, 447.165 213.407, 446.364 215.493 M 274.607 216.582 C 273.619 219.156, 273.915 227, 275 227 C 275.556 227, 276 224.333, 276 221 C 276 214.849, 275.672 213.807, 274.607 216.582 M 324.070 220.750 C 324.030 224.297, 324.433 227, 325 227 C 326.206 227, 326.206 219.307, 325 216.500 C 324.393 215.086, 324.120 216.332, 324.070 220.750 M 89.571 217.571 C 87.729 219.414, 87.629 220.438, 89.035 223.066 C 90.288 225.406, 94.256 225.601, 96.429 223.429 C 98.381 221.476, 98.382 220.991, 96.443 218.223 C 94.621 215.621, 91.790 215.353, 89.571 217.571 M 504.605 217.299 C 503.423 218.164, 502.941 219.586, 503.164 221.549 C 503.436 223.941, 504.033 224.561, 506.310 224.822 C 511.343 225.399, 513.847 220.990, 510.429 217.571 C 508.517 215.660, 506.948 215.586, 504.605 217.299 M 266.636 221.640 C 266.286 224.191, 266.041 228.129, 266.090 230.390 C 266.177 234.337, 266.212 234.381, 266.987 231.500 C 268.220 226.918, 268.956 217, 268.064 217 C 267.628 217, 266.986 219.088, 266.636 221.640 M 331.750 221.750 C 332.027 224.363, 332.597 228.300, 333.017 230.500 C 333.767 234.426, 333.783 234.396, 333.890 228.875 C 334.014 222.550, 333.129 217, 331.998 217 C 331.584 217, 331.472 219.137, 331.750 221.750 M 293.687 230.043 C 291.617 233.829, 285.500 242.531, 280.094 249.381 C 274.687 256.232, 269.219 263.528, 267.941 265.595 C 266.663 267.663, 265.442 268.825, 265.226 268.179 C 264.686 266.557, 267.750 261.827, 277.142 249.788 C 285.474 239.107, 290.591 231.258, 289.763 230.429 C 289.498 230.165, 284.089 235.336, 277.741 241.920 C 254.310 266.223, 245.097 285.703, 246.277 308.451 C 246.564 313.978, 247.512 320.783, 248.386 323.574 C 249.910 328.446, 257.670 341.663, 258.512 340.822 C 258.736 340.597, 257.951 337.508, 256.768 333.957 C 253.869 325.255, 253.529 298.632, 256.206 290 C 259.389 279.738, 261.055 279.738, 258.338 290 C 252.724 311.204, 256.329 335.527, 267.102 349.129 C 268.829 351.309, 270.416 352.918, 270.629 352.705 C 270.842 352.491, 269.478 348.983, 267.597 344.909 C 264.267 337.693, 261 327.045, 261 323.406 C 261 320.187, 262.607 323.298, 264.401 329.987 C 266.458 337.658, 271.845 348.282, 276.110 353.078 C 279.412 356.790, 279.389 356.572, 275.494 347.194 C 271.561 337.724, 272.944 336.260, 277.255 345.329 C 281.273 353.782, 284.616 359, 286.013 359 C 286.495 359, 285.782 356.580, 284.428 353.623 C 279.308 342.440, 277.742 333.160, 278.267 317.114 C 278.592 307.154, 279.309 300.662, 280.518 296.729 C 281.493 293.555, 282.478 291.145, 282.707 291.374 C 282.937 291.603, 282.360 295.325, 281.426 299.645 C 279.185 310.011, 279.105 329.254, 281.266 338 C 283.196 345.811, 285.992 352.286, 289.446 356.944 C 292.497 361.058, 292.557 360.531, 290.134 350.910 C 287.710 341.282, 286.663 333, 287.872 333 C 288.389 333, 289.135 335.343, 289.529 338.208 C 290.720 346.870, 296.063 361.271, 297.538 359.795 C 297.746 359.588, 297.249 355.386, 296.434 350.459 C 294.363 337.944, 293.336 315, 294.846 315 C 295.623 315, 296.006 317.692, 296.018 323.250 C 296.038 332.184, 298.424 351.148, 299.848 353.692 C 300.529 354.910, 300.865 354.502, 301.337 351.882 C 303.620 339.221, 304.212 327.386, 303.735 304 C 303.361 285.636, 303.484 280.319, 304.177 285 C 305.512 294.027, 305.580 346.204, 304.266 353 C 303.680 356.025, 303.375 358.681, 303.586 358.902 C 304.460 359.815, 308.876 348.018, 310.008 341.750 C 311.325 334.455, 313.431 332.249, 312.394 339.250 C 311.487 345.376, 309.244 356.207, 308.458 358.250 C 307.193 361.544, 309.043 360.002, 312.057 355.250 C 319.646 343.286, 322.443 324.630, 319.571 305.135 C 317.710 292.498, 317.973 289.600, 320.108 299.225 C 320.984 303.172, 321.493 311.437, 321.482 321.500 C 321.465 337.187, 321.395 337.700, 317.937 347.732 C 314.485 357.746, 314.462 357.916, 316.849 355.732 C 318.191 354.504, 320.751 350.350, 322.538 346.500 C 331.338 327.545, 331.838 303.281, 323.903 280.218 C 321.680 273.756, 322.204 271.886, 324.637 277.596 C 328.392 286.407, 330.172 295.621, 330.705 309 C 331.345 325.077, 329.839 334.691, 324.663 347.582 L 321.216 356.167 324.027 353.474 C 328.991 348.719, 337 331.388, 337 325.402 C 337 324.146, 337.521 322.796, 338.157 322.403 C 341.353 320.428, 335.835 340.317, 330.986 348.250 C 327.684 353.653, 328.517 354.551, 332.472 349.851 C 342.917 337.437, 347.596 313.919, 343.483 294.500 C 341.706 286.114, 341.708 285.321, 343.489 290.167 C 347.492 301.053, 347.692 317.648, 343.992 332.030 C 342.946 336.096, 342.262 339.595, 342.472 339.805 C 342.681 340.015, 344.221 338.297, 345.894 335.988 C 352.523 326.836, 355.661 312.614, 353.981 299.328 C 351.386 278.805, 342.215 262.330, 321.651 241.250 C 305.984 225.190, 305.093 226.193, 318.887 244.361 C 327.956 256.305, 328.675 257.394, 327.156 256.880 C 325.325 256.260, 312.257 240.072, 307.263 232.237 C 301.932 223.872, 301.038 224.160, 301.015 234.250 C 301.007 238.073, 300.566 241, 300 241 C 299.412 241, 299 237.520, 299 232.559 C 299 227.916, 298.652 223.903, 298.226 223.639 C 297.800 223.376, 295.757 226.258, 293.687 230.043 M 393.763 230.250 C 387.044 238.282, 381.691 246.024, 382.380 246.714 C 382.721 247.054, 383.160 247.146, 383.355 246.917 C 384.268 245.845, 397.697 227.352, 398.363 226.250 C 400.071 223.422, 397.882 225.326, 393.763 230.250 M 206.911 232.758 C 209.133 235.925, 212.357 240.087, 214.076 242.008 C 217.051 245.330, 217.117 245.354, 215.449 242.500 C 213.384 238.968, 204.043 227, 203.350 227 C 203.087 227, 204.690 229.591, 206.911 232.758 M 141.658 231.675 C 141.296 232.037, 141 232.933, 141 233.667 C 141 235.156, 143.578 235.492, 144.430 234.113 C 145.111 233.012, 142.562 230.771, 141.658 231.675 M 456.336 232.567 C 455.448 234.882, 457.413 236.412, 458.928 234.586 C 460.210 233.043, 459.629 231, 457.910 231 C 457.375 231, 456.667 231.705, 456.336 232.567 M 188.336 235.567 C 188.005 236.429, 188.244 237.644, 188.867 238.267 C 189.711 239.111, 190 238.711, 190 236.700 C 190 233.691, 189.251 233.182, 188.336 235.567 M 301.807 256.498 C 302.006 264.585, 302.495 269, 303.193 269 C 303.901 269, 304.053 267.406, 303.636 264.360 C 303.286 261.809, 303 256.184, 303 251.860 C 303 247.537, 302.663 243.999, 302.250 243.998 C 301.837 243.997, 301.638 249.622, 301.807 256.498 M 88 247.500 C 88 249.482, 88.439 250.062, 89.750 249.810 C 90.713 249.624, 91.500 248.585, 91.500 247.500 C 91.500 246.415, 90.713 245.376, 89.750 245.190 C 88.439 244.938, 88 245.518, 88 247.500 M 508.336 246.567 C 507.502 248.739, 509.618 250.782, 511.133 249.267 C 512.413 247.987, 511.620 245, 510 245 C 509.415 245, 508.667 245.705, 508.336 246.567 M 205.038 249.600 C 206.317 252.963, 209 256.794, 209 255.256 C 209 253.464, 205.743 247, 204.840 247 C 204.405 247, 204.494 248.170, 205.038 249.600 M 297.761 250.500 C 297.355 252.700, 297.074 257.425, 297.138 261 L 297.253 267.500 298.161 260.500 C 298.660 256.650, 298.941 251.925, 298.784 250 L 298.500 246.500 297.761 250.500 M 411.232 252 C 411.232 253.925, 411.438 254.713, 411.689 253.750 C 411.941 252.787, 411.941 251.213, 411.689 250.250 C 411.438 249.287, 411.232 250.075, 411.232 252 M 233.782 253.511 C 235.041 255.963, 238.831 259.502, 239.491 258.842 C 239.755 258.579, 238.345 256.819, 236.360 254.932 C 234.135 252.817, 233.145 252.272, 233.782 253.511 M 455 255.972 C 445.937 258.407, 426.952 265.715, 425.239 267.428 C 423.941 268.726, 426.170 269.244, 428.496 268.184 C 431.923 266.622, 431.656 268.120, 428.152 270.113 C 425.553 271.591, 425.265 272.341, 424.691 279.113 C 422.825 301.134, 412.455 324.952, 399.556 336.842 C 396.966 339.229, 394.998 341.331, 395.181 341.514 C 395.364 341.697, 398.861 340.544, 402.952 338.952 C 407.044 337.361, 410.573 336.240, 410.795 336.462 C 411.597 337.263, 399.552 342.776, 383.111 349.132 C 381.798 349.640, 380.944 350.278, 381.215 350.548 C 382.045 351.378, 404.135 345.301, 410.374 342.527 C 413.605 341.091, 416.464 340.130, 416.727 340.393 C 417.577 341.244, 403.630 347.751, 395.967 350.079 C 391.872 351.323, 388.990 352.497, 389.563 352.688 C 391.838 353.446, 410.711 347.827, 418.372 344.110 C 426.031 340.394, 439.940 331.235, 439.981 329.880 C 439.992 329.539, 436.594 331.045, 432.430 333.227 C 428.267 335.409, 424.681 337.014, 424.461 336.795 C 424.242 336.575, 428.776 333.098, 434.538 329.068 C 445.392 321.476, 455.820 311.334, 458.534 305.730 C 460.018 302.665, 459.931 302.704, 456.835 306.500 C 452.004 312.420, 446.211 317.730, 439.805 322.108 C 433.843 326.182, 433 326.557, 433 325.133 C 433 324.656, 434.889 323.016, 437.198 321.487 C 446.864 315.091, 456.589 303.818, 462.365 292.313 C 465.781 285.511, 470.102 273.982, 469.205 274.065 C 468.817 274.101, 465.575 277.567, 462 281.768 C 452.860 292.508, 437.904 308, 436.676 308 C 436.109 308, 439.241 304.288, 443.637 299.750 C 451.911 291.208, 460.559 280.239, 467.879 269 C 471.892 262.838, 471.367 263.258, 457.806 277.057 C 440.338 294.832, 433.964 300.335, 447.334 286.098 C 458.036 274.702, 470.226 259.892, 469.501 259.167 C 469.248 258.915, 464.757 260.779, 459.521 263.311 C 454.284 265.843, 450 267.732, 450 267.509 C 450 267.287, 453.850 265.006, 458.555 262.441 C 463.261 259.876, 466.911 257.577, 466.666 257.333 C 465.998 256.665, 455.358 259.601, 448.077 262.463 C 444.544 263.851, 441.496 264.830, 441.304 264.638 C 440.795 264.129, 453.580 258.576, 460 256.518 C 463.025 255.548, 465.928 254.359, 466.450 253.877 C 467.818 252.614, 466.812 252.798, 455 255.972 M 143.500 257.385 C 152.369 260.622, 161 264.617, 161 265.485 C 161 265.729, 159.022 265.081, 156.605 264.045 C 149.777 261.118, 132.861 255.879, 131.617 256.305 C 131.002 256.516, 132.863 257.891, 135.750 259.361 C 142.050 262.568, 142.523 263.448, 136.874 261.456 C 132.218 259.813, 130 259.611, 130 260.830 C 130 261.286, 137.289 269.498, 146.198 279.080 C 165.020 299.322, 163.675 298.858, 143.189 278.042 C 135.318 270.044, 129.209 264.175, 129.614 265 C 131.064 267.958, 144.393 286.608, 148.910 292 C 155.664 300.062, 156.838 301.876, 153.116 298.500 C 151.297 296.850, 145.515 290.424, 140.267 284.221 C 135.019 278.017, 130.545 273.122, 130.323 273.343 C 129.761 273.906, 134.201 285.480, 137.494 292.035 C 143.363 303.719, 153.159 315.094, 163.298 322 C 166.688 324.309, 169.660 328.091, 166.739 326.378 C 160.129 322.503, 153.350 317.054, 147.739 311.106 C 144.033 307.177, 141 304.248, 141 304.597 C 141 306.098, 148.496 315.253, 153.379 319.716 C 156.300 322.385, 162.789 327.377, 167.801 330.809 C 172.813 334.242, 177.202 337.518, 177.555 338.089 C 178.268 339.243, 168.463 334.346, 163 330.821 C 160.363 329.119, 159.847 328.996, 160.906 330.321 C 163.299 333.316, 178.499 342.935, 185.164 345.673 C 191.956 348.463, 207.511 353.027, 209.993 352.958 C 210.822 352.935, 207.206 351.458, 201.957 349.675 C 192.926 346.607, 182.330 341.337, 183.280 340.387 C 183.520 340.146, 185.918 340.909, 188.608 342.082 C 198.934 346.582, 217.463 351.870, 218.671 350.662 C 218.877 350.457, 216.897 349.487, 214.272 348.506 C 206.186 345.486, 188.647 337.020, 189.242 336.424 C 189.552 336.115, 193.248 337.294, 197.455 339.045 C 201.662 340.797, 205.344 341.990, 205.637 341.696 C 205.931 341.402, 205.275 340.682, 204.178 340.096 C 200.822 338.299, 190.691 324.900, 186.282 316.425 C 181.372 306.988, 177.298 293.662, 176.437 284.226 C 175.587 274.898, 174.278 271.230, 171.169 269.457 L 168.500 267.935 171.750 268.547 C 182.599 270.590, 165.541 261.962, 149.040 257.060 C 135.483 253.032, 132.117 253.230, 143.500 257.385 M 329 259.521 C 329 260.849, 334.462 268.113, 334.769 267.193 C 335.166 266.002, 330.889 259.031, 329.750 259.012 C 329.337 259.006, 329 259.235, 329 259.521 M 411.195 265.500 C 411.215 267.150, 411.439 267.704, 411.693 266.731 C 411.947 265.758, 411.930 264.408, 411.656 263.731 C 411.382 263.054, 411.175 263.850, 411.195 265.500 M 87.124 275.268 C 85.518 278.606, 83.392 281.064, 80.558 282.861 L 76.368 285.518 80.221 287.359 C 82.862 288.621, 84.962 290.755, 86.897 294.144 L 89.721 299.088 90.984 296.039 C 92.515 292.342, 98.095 287.265, 101.593 286.387 C 104.083 285.762, 104.047 285.701, 100.208 283.982 C 96.125 282.154, 91.900 277.398, 90.378 272.917 C 89.521 270.394, 89.444 270.450, 87.124 275.268 M 509.444 271.687 C 507.652 277.684, 505.285 280.605, 500.210 283.080 L 494.919 285.659 498.886 286.848 C 503.368 288.191, 507.825 292.875, 508.678 297.140 C 508.993 298.713, 509.531 299.989, 509.875 299.976 C 510.219 299.963, 511.491 297.697, 512.702 294.941 C 514.600 290.622, 515.609 289.618, 519.997 287.681 L 525.089 285.434 521.594 284.170 C 517.443 282.669, 513.121 277.856, 512.318 273.840 C 511.613 270.314, 510.176 269.238, 509.444 271.687 M 275.187 278.682 C 273.531 282.982, 271.462 289.969, 270.588 294.208 C 268.914 302.335, 268.401 321, 269.853 321 C 270.322 321, 270.497 318.815, 270.240 316.145 C 269.519 308.639, 271.780 294.644, 275.646 282.685 C 277.577 276.711, 278.941 271.608, 278.677 271.344 C 278.414 271.080, 276.843 274.382, 275.187 278.682 M 295.659 282.704 C 294.886 294.378, 294.798 308.536, 295.502 307.831 C 296.355 306.978, 297.815 274.550, 297.039 273.704 C 296.637 273.266, 296.016 277.316, 295.659 282.704 M 139.581 290 C 141.315 293.568, 149.112 303.786, 152.553 307 C 157.419 311.545, 156.026 309.153, 149.056 300.999 C 146 297.423, 142.454 293.148, 141.176 291.499 C 139.898 289.849, 139.180 289.175, 139.581 290 M 457.219 293.345 C 455.503 295.734, 451.377 300.693, 448.050 304.364 C 444.722 308.036, 442.018 311.368, 442.041 311.770 C 442.122 313.233, 456.565 297.213, 458.814 293.165 C 461.801 287.788, 461.157 287.861, 457.219 293.345 M 260.607 298.582 C 259.732 300.863, 259.858 318, 260.750 318 C 261.163 317.999, 261.505 313.274, 261.512 307.500 C 261.519 301.725, 261.454 297, 261.369 297 C 261.284 297, 260.941 297.712, 260.607 298.582 M 339.168 305.668 C 339.076 310.711, 338.727 315.548, 338.393 316.418 C 338.059 317.288, 338.241 318, 338.796 318 C 340.097 318, 340.663 310.180, 339.918 302.500 C 339.382 296.971, 339.323 297.219, 339.168 305.668 M 286.626 313.250 C 286.291 317.238, 286.407 322.975, 286.883 326 C 287.634 330.759, 287.767 329.783, 287.875 318.750 C 287.944 311.738, 287.828 306, 287.617 306 C 287.407 306, 286.961 309.262, 286.626 313.250 M 311.927 318.500 C 311.692 325.650, 311.773 331.863, 312.106 332.306 C 313.187 333.744, 313.854 320.708, 313.094 313 C 312.364 305.600, 312.349 305.673, 311.927 318.500 M 95.527 318.337 C 93.730 319.669, 93.682 320.037, 94.991 322.482 C 96.821 325.902, 103.277 329.701, 108.745 330.575 C 115.956 331.728, 118.363 327.578, 113.250 322.809 C 109.554 319.362, 107.330 318.319, 102 317.536 C 98.767 317.061, 96.944 317.286, 95.527 318.337 M 493.951 318.541 C 488.115 320.340, 484.738 323.842, 485.174 327.646 C 485.484 330.362, 485.728 330.492, 490.222 330.341 C 495.885 330.149, 502.506 326.684, 504.850 322.684 C 506.412 320.018, 506.397 319.792, 504.559 318.434 C 502.195 316.688, 499.889 316.711, 493.951 318.541 M 70.173 319.659 C 70.368 320.672, 71.196 321.500, 72.014 321.500 C 74.157 321.500, 73.848 318.594, 71.659 318.173 C 70.323 317.916, 69.916 318.323, 70.173 319.659 M 526.446 319.087 C 525.573 320.499, 527.501 322.427, 528.913 321.554 C 529.511 321.184, 530 320.234, 530 319.441 C 530 317.757, 527.426 317.501, 526.446 319.087 M 101 321.717 C 101 324.348, 111.451 329.949, 113.164 328.236 C 114.377 327.023, 113.392 324.726, 111.024 323.247 C 108.402 321.610, 101 320.480, 101 321.717 M 492.270 321.703 C 489.776 322.185, 485.727 326.749, 486.575 328.121 C 487.799 330.102, 500 324.526, 500 321.986 C 500 321.006, 496.535 320.879, 492.270 321.703 M 269.379 325.750 C 269.662 326.712, 270.193 329.192, 270.560 331.261 C 271.240 335.095, 273 337.433, 273 334.502 C 273 331.400, 270.755 324, 269.814 324 C 269.292 324, 269.097 324.788, 269.379 325.750 M 397.515 332.711 C 394.773 335.792, 390.398 339.904, 387.792 341.850 C 382.939 345.473, 382.040 347.119, 386.102 344.945 C 389.099 343.342, 397.419 335.521, 401.178 330.775 C 405.741 325.013, 403.145 326.386, 397.515 332.711 M 426.985 329.046 C 425.618 330.096, 424.950 330.951, 425.500 330.946 C 426.823 330.933, 430.478 328.144, 429.912 327.579 C 429.669 327.336, 428.352 327.996, 426.985 329.046 M 199.823 331.663 C 202.621 335.705, 210.753 342.967, 215.121 345.322 C 218.404 347.093, 218.387 347.051, 214.500 343.839 C 212.300 342.022, 207.605 337.827, 204.067 334.517 C 199.733 330.463, 198.349 329.532, 199.823 331.663 M 77.336 339.566 C 77.006 340.427, 77.692 346.839, 78.861 353.816 C 80.030 360.792, 81.472 372.125, 82.067 379 C 83.340 393.717, 84.241 398.891, 86.799 406.169 C 92.402 422.110, 105.249 432.866, 123.144 436.597 C 131.092 438.254, 136.635 437.798, 144.676 434.825 L 149.853 432.911 160.405 440.746 C 175.074 451.638, 195.706 461.694, 198.221 459.179 C 198.936 458.464, 197.636 457.269, 194.026 455.321 C 184.997 450.451, 165.681 437.441, 160.483 432.730 C 155.502 428.214, 155.501 428.211, 156.875 424.856 C 157.631 423.010, 158.949 418.837, 159.804 415.583 C 163.164 402.793, 157.484 384.756, 146.806 374.309 C 138.796 366.472, 131.204 362.469, 113.924 356.976 C 97.843 351.864, 89.568 347.547, 83.563 341.136 C 80.333 337.687, 78.258 337.164, 77.336 339.566 M 515.711 341.784 C 509.905 347.730, 502.604 351.548, 487.528 356.521 C 479.844 359.055, 470.098 362.929, 465.870 365.129 C 443.962 376.526, 433.766 401.751, 442.560 422.797 C 443.352 424.693, 444 427.066, 444 428.071 C 444 430.694, 430.946 440.542, 414.717 450.164 C 400.242 458.746, 397.884 461.909, 409.112 457.682 C 422.265 452.732, 434.843 445.421, 445.246 436.681 L 449.993 432.693 454.220 434.597 C 460.667 437.500, 478.417 437.252, 486.225 434.150 C 499.253 428.974, 509.474 418.100, 513.947 404.659 C 515.244 400.763, 516.632 392.304, 517.519 382.893 C 518.317 374.427, 519.963 361.636, 521.176 354.468 C 524.118 337.084, 522.950 334.371, 515.711 341.784 M 142.011 346.487 C 140.543 348.256, 141.355 351, 143.346 351 C 144.121 351, 145.315 350.325, 146 349.500 C 146.993 348.303, 146.993 347.697, 146 346.500 C 144.435 344.614, 143.567 344.611, 142.011 346.487 M 454.011 346.487 C 452.387 348.444, 453.435 351, 455.862 351 C 458.227 351, 459.441 348.237, 457.895 346.373 C 456.435 344.615, 455.543 344.641, 454.011 346.487 M 377.441 348.468 C 376.374 349.276, 375.976 349.951, 376.559 349.968 C 377.141 349.986, 378.491 349.339, 379.559 348.532 C 380.626 347.724, 381.024 347.049, 380.441 347.032 C 379.859 347.014, 378.509 347.661, 377.441 348.468 M 336.500 355.068 C 334.850 356.125, 334.013 356.992, 334.639 356.995 C 335.266 356.998, 336.841 356.115, 338.139 355.033 C 341.112 352.556, 340.397 352.572, 336.500 355.068 M 92.766 359.666 L 94.500 363.333 94.830 360.525 C 95.015 358.951, 94.576 357.347, 93.830 356.874 C 91.314 355.279, 91.036 356.008, 92.766 359.666 M 506.200 357.200 C 504.832 358.568, 504.574 362, 505.839 362 C 506.566 362, 509 357.729, 509 356.453 C 509 355.581, 507.389 356.011, 506.200 357.200 M 97.014 362.167 C 97.031 366.508, 97.992 370, 99.169 370 C 100.588 370, 99.710 359.726, 98.250 359.245 C 97.416 358.970, 97.005 359.943, 97.014 362.167 M 500.667 359.667 C 500.300 360.033, 500.014 362.846, 500.032 365.917 C 500.061 371.044, 500.184 371.341, 501.532 369.559 C 502.339 368.491, 503 365.679, 503 363.309 C 503 359.280, 502.240 358.094, 500.667 359.667 M 101.667 361.667 C 99.607 363.726, 101.817 375.361, 104.992 379.170 L 106.933 381.500 106.967 372.450 C 106.999 363.627, 106.196 361, 103.467 361 C 102.843 361, 102.033 361.300, 101.667 361.667 M 160.958 362.550 C 159.894 363.833, 159.969 364.394, 161.397 365.800 C 163.021 367.401, 163.205 367.388, 164.544 365.582 C 165.598 364.161, 165.680 363.319, 164.861 362.332 C 163.425 360.602, 162.534 360.651, 160.958 362.550 M 239 363.410 C 228.219 366.335, 211.062 372.301, 211.027 373.136 C 211.012 373.487, 213.029 374.077, 215.509 374.449 C 217.989 374.821, 223.259 376.227, 227.220 377.575 C 231.181 378.922, 236.997 380.439, 240.145 380.946 C 246.836 382.024, 257.828 380.751, 261.823 378.436 L 264.500 376.885 262 377.485 C 257.202 378.635, 240.251 379.269, 236.391 378.441 C 233.005 377.716, 233.799 377.520, 242.500 376.933 C 252.592 376.251, 261 374.392, 261 372.842 C 261 372.379, 252.338 371.928, 241.750 371.840 C 220.579 371.664, 220.845 371.485, 244.919 369.710 C 266.625 368.110, 267.900 365.183, 247 364.932 C 238.343 364.828, 238.846 364.384, 249.690 362.559 C 257.036 361.322, 257.203 361.240, 252.500 361.174 C 249.750 361.135, 243.675 362.141, 239 363.410 M 348 361.900 C 348.825 362.361, 351.867 363.039, 354.759 363.405 C 364.978 364.700, 363.728 365.500, 351.487 365.500 C 343.643 365.500, 338.687 365.913, 337.975 366.625 C 336.564 368.036, 340.116 368.570, 361 370.093 C 369.525 370.714, 376.687 371.398, 376.917 371.611 C 377.146 371.825, 368.907 372, 358.608 372 C 347.429 372, 340.112 372.372, 340.452 372.922 C 341.337 374.354, 354.240 376.993, 360.697 377.063 C 365.670 377.118, 366.142 377.275, 364 378.161 C 361.285 379.283, 341.797 378.723, 338.586 377.431 C 337.322 376.922, 336.896 377.023, 337.333 377.730 C 338.468 379.566, 348.169 381.396, 356 381.251 C 361.367 381.152, 366.907 380.102, 375.483 377.556 C 382.073 375.600, 388.351 374, 389.433 374 C 393.182 374, 389.545 372.167, 377.765 368.119 C 366.168 364.134, 353.240 360.971, 348.792 361.030 C 347.026 361.054, 346.844 361.253, 348 361.900 M 435.667 361.667 C 434.617 362.717, 434.888 365.813, 436.096 366.559 C 437.652 367.521, 440.393 364.466, 439.668 362.578 C 439.050 360.966, 436.865 360.468, 435.667 361.667 M 494.200 362.200 C 492.688 363.712, 492.509 380.422, 494.014 379.491 C 495.961 378.288, 499 371.053, 499 367.622 C 499 361.513, 497.069 359.331, 494.200 362.200 M 510.607 364.582 C 509.736 366.852, 509.859 368.205, 510.879 367.575 C 512.066 366.841, 513.018 363, 512.013 363 C 511.574 363, 510.941 363.712, 510.607 364.582 M 109.630 367.250 C 108.764 370.482, 108.859 383.001, 109.750 382.993 C 110.162 382.990, 110.645 378.940, 110.821 373.993 C 111.142 365.036, 110.777 362.971, 109.630 367.250 M 113.668 365.728 C 112.293 367.953, 111.807 381.886, 112.981 385.442 C 114.224 389.209, 119.449 396, 121.104 396 C 122.571 396, 122.227 368.433, 120.744 367.203 C 118.885 365.660, 114.301 364.704, 113.668 365.728 M 481.107 366.579 L 477.713 368.024 478.349 374.762 C 478.699 378.468, 479.006 385.100, 479.030 389.500 L 479.075 397.500 482.525 393.500 C 487.202 388.076, 488.336 384.139, 487.769 375.295 C 487.179 366.102, 485.962 364.511, 481.107 366.579 M 489.359 370.500 C 489.699 372.700, 489.983 376.488, 489.989 378.917 C 489.995 381.346, 490.275 383.059, 490.610 382.723 C 491.687 381.647, 491.060 368.657, 489.879 367.559 C 489.034 366.773, 488.899 367.532, 489.359 370.500 M 88.667 369.667 C 87.467 370.866, 87.967 375.508, 89.537 377.749 C 90.888 379.678, 98.582 382.752, 99.574 381.759 C 100.033 381.301, 95.454 374.318, 92.683 371.250 C 90.545 368.882, 89.760 368.573, 88.667 369.667 M 124.329 371.750 C 123.049 376.711, 123.376 398.776, 124.750 400.150 C 125.750 401.150, 126 399.560, 126 392.200 C 126 386.733, 126.406 383, 127 383 C 127.597 383, 128.006 386.927, 128.015 392.750 C 128.029 401.245, 129.005 406.484, 130.292 404.971 C 130.513 404.712, 131.238 398.650, 131.904 391.500 C 132.571 384.350, 133.347 377.552, 133.630 376.394 C 134.125 374.366, 131.853 371, 129.990 371 C 129.513 371, 128.819 373.025, 128.448 375.500 C 127.504 381.794, 126.430 381.126, 126.843 374.501 C 127.209 368.620, 125.592 366.851, 124.329 371.750 M 473.392 375.250 C 473.764 378.688, 474.347 385.914, 474.689 391.309 C 475.464 403.556, 476.967 402.039, 476.976 389 C 476.985 375.577, 476.078 369, 474.218 369 C 472.969 369, 472.829 370.055, 473.392 375.250 M 505.683 373.250 C 504.353 375.038, 502.430 377.811, 501.410 379.414 L 499.555 382.329 502.233 381.656 C 509.868 379.740, 510.342 379.305, 511.388 373.250 C 511.861 370.515, 511.645 370, 510.026 370 C 508.968 370, 507.013 371.462, 505.683 373.250 M 467.514 372.629 C 466.618 373.525, 466.094 374.804, 466.350 375.471 C 466.606 376.138, 467.598 382.605, 468.555 389.842 C 469.511 397.079, 470.639 403, 471.061 403 C 472.246 403, 473.333 388.457, 472.642 381.849 C 471.502 370.939, 470.680 369.462, 467.514 372.629 M 138.594 381.782 C 138.233 383.827, 137.681 391.125, 137.367 398 C 136.898 408.274, 137.067 410.856, 138.317 412.498 C 139.153 413.598, 140.103 414.230, 140.429 413.904 C 140.755 413.579, 142.188 407.488, 143.613 400.370 C 146.020 388.353, 146.097 387.168, 144.687 383.794 C 143.852 381.796, 142.288 379.689, 141.210 379.113 C 139.464 378.178, 139.180 378.468, 138.594 381.782 M 457.727 380.545 C 456.254 382.019, 454.819 384.636, 454.539 386.362 C 453.947 390.012, 459.026 413.025, 460.487 413.308 C 461.029 413.414, 462.039 412.319, 462.731 410.876 C 463.714 408.824, 463.757 405.374, 462.928 395.036 C 462.345 387.766, 461.540 380.930, 461.137 379.843 C 460.439 377.955, 460.287 377.986, 457.727 380.545 M 463.349 380 C 463.691 381.375, 464.271 388.029, 464.639 394.786 C 465.407 408.877, 467 412.222, 467 399.743 C 467 390.492, 465.419 380.050, 463.783 378.500 C 463.051 377.806, 462.918 378.265, 463.349 380 M 135.129 383.833 C 133.526 391.310, 132.563 405, 133.640 405 C 134.538 405, 137.401 380.067, 136.595 379.262 C 136.375 379.042, 135.716 381.099, 135.129 383.833 M 90 385.913 C 90 390.550, 90.443 390.854, 101.285 393.644 C 109.932 395.870, 110.811 395.290, 106.466 390.224 C 102.358 385.433, 99.175 383.499, 93.715 382.474 L 90 381.777 90 385.913 M 502.738 383.205 C 500.154 383.892, 497.568 385.815, 494.477 389.348 C 492.002 392.177, 490.451 394.650, 491.031 394.844 C 492.856 395.452, 506.420 391.804, 508.250 390.212 C 509.265 389.330, 510 387.284, 510 385.345 C 510 381.644, 509.346 381.451, 502.738 383.205 M 172.318 386.614 C 171.362 389.105, 173.777 408.728, 176.064 417.050 C 181.709 437.597, 192.498 451.438, 209.829 460.369 C 214.960 463.012, 218.961 465.372, 218.721 465.612 C 218.481 465.852, 215.633 465.355, 212.392 464.507 C 193.804 459.644, 179.841 460.261, 163.771 466.656 C 154.889 470.189, 153.976 470.348, 142.014 470.422 C 126.335 470.520, 125.849 471.247, 135.153 480.696 C 151.597 497.395, 171.985 507.712, 199.476 513.245 C 208.644 515.090, 213.784 515.460, 230 515.443 C 257.507 515.416, 267.273 512.666, 277.707 502.010 L 282.704 496.908 286.257 503.704 C 291.216 513.189, 294.799 525.602, 296.271 538.399 C 297.220 546.650, 297.940 549.560, 299.235 550.376 C 301.982 552.109, 302.732 550.274, 303.935 538.877 C 304.552 533.034, 305.969 524.965, 307.083 520.944 C 309.345 512.780, 315.106 499.670, 316.926 498.546 C 317.638 498.106, 320.181 499.770, 323.305 502.720 C 326.162 505.419, 330.975 508.779, 334 510.187 C 343.799 514.747, 349.005 515.502, 370.500 515.478 C 387.100 515.460, 392.374 515.079, 401.524 513.241 C 421.349 509.258, 438.948 502.056, 451.500 492.789 C 460.506 486.140, 471.140 474.972, 470.791 472.530 C 470.517 470.617, 469.776 470.497, 458 470.441 C 446.118 470.386, 445.138 470.222, 438.180 467.124 C 429.999 463.483, 419.870 461.044, 412.822 461.017 C 406.396 460.994, 393.602 462.781, 387.143 464.605 C 380.242 466.554, 379.336 465.642, 385.533 462.986 C 393.248 459.679, 403.544 452.332, 408.925 446.294 C 419.956 433.918, 427.028 413.895, 427.358 394.103 C 427.473 387.189, 427.211 385.501, 425.982 385.251 C 425.141 385.080, 423.658 386.309, 422.652 388.011 C 419.743 392.937, 413.315 398.521, 407.704 400.999 C 392.733 407.609, 387.304 410.334, 383.112 413.344 C 379.941 415.620, 376.492 417.012, 372.076 417.799 C 360.102 419.932, 343.217 429.516, 334.655 439.039 C 328.201 446.218, 323.738 456.002, 319.055 473.241 C 315.025 488.074, 313.371 492.192, 308.113 500.482 C 306.540 502.963, 304.240 508.144, 303.001 511.996 C 300.865 518.641, 299 521.083, 299 517.238 C 299 516.268, 295.813 508.956, 291.917 500.988 C 286.858 490.640, 283.589 482.167, 280.476 471.338 C 278.079 462.998, 274.691 453.351, 272.949 449.898 C 268.740 441.562, 260.305 432.907, 250.500 426.866 C 242.689 422.054, 229.345 417, 224.451 417 C 223.105 417, 219.866 415.478, 217.252 413.617 C 211.796 409.734, 205.280 406.349, 196.002 402.579 C 186.754 398.821, 182.683 395.833, 178.941 390.058 C 175.586 384.881, 173.416 383.753, 172.318 386.614 M 287.490 390.010 C 285.915 391.655, 285.082 393, 285.639 393 C 286.925 393, 291.508 388.174, 290.848 387.514 C 290.576 387.243, 289.065 388.366, 287.490 390.010 M 145.564 402.031 C 143.037 414.353, 142.738 418.595, 144.523 416.810 C 144.811 416.522, 146.269 410.390, 147.764 403.184 C 149.616 394.254, 150.155 389.755, 149.458 389.058 C 148.761 388.361, 147.521 392.493, 145.564 402.031 M 450.022 390.750 C 450.046 393.760, 455.462 415.795, 456.411 416.745 C 458.076 418.409, 457.713 415.070, 454.828 402.168 C 451.860 388.896, 449.971 384.409, 450.022 390.750 M 91.402 394.158 C 90.663 395.354, 91.799 400.053, 93.251 401.802 C 95.702 404.756, 113.698 409.979, 121.469 409.993 L 125.437 410 119.505 404.005 C 115.205 399.659, 112.600 397.844, 110.037 397.405 C 108.091 397.072, 103.236 395.990, 99.246 395.001 C 94.830 393.906, 91.762 393.576, 91.402 394.158 M 496.590 395.925 C 485.807 398.633, 485.624 398.728, 480.915 404.082 C 478.294 407.062, 476.634 409.673, 477.225 409.883 C 478.794 410.443, 491.520 408.055, 498.696 405.854 C 505.617 403.731, 509 400.451, 509 395.865 C 509 394.289, 508.663 393.042, 508.250 393.092 C 507.837 393.143, 502.590 394.418, 496.590 395.925 M 149.149 405.700 C 146.614 418.431, 146.584 419.048, 148.376 421.499 C 149.682 423.286, 149.832 423.225, 151.345 420.300 C 154.646 413.916, 155.138 398.738, 152.141 395.741 C 151.679 395.279, 150.332 399.760, 149.149 405.700 M 446.430 399.521 C 445.447 404.761, 446.427 414.970, 448.338 419.396 C 449.997 423.239, 450.048 423.267, 452.067 421.440 C 453.314 420.311, 453.932 418.789, 453.648 417.544 C 453.392 416.420, 452.205 411.113, 451.010 405.750 C 449.814 400.387, 448.443 396, 447.963 396 C 447.483 396, 446.793 397.584, 446.430 399.521 M 225.234 402.202 C 225.708 403.623, 234.510 406.114, 237.781 405.752 C 242.052 405.280, 239.955 403.503, 233.719 402.312 C 225.655 400.771, 224.753 400.759, 225.234 402.202 M 365.500 402.359 C 362.152 402.996, 359.721 403.942, 360 404.500 C 361.032 406.564, 375 404.163, 375 401.922 C 375 400.800, 373.283 400.879, 365.500 402.359 M 180.472 407.750 C 181.830 415.081, 185.213 423.599, 189.539 430.577 C 194.889 439.207, 208.885 452.895, 216.095 456.548 C 222.453 459.770, 239.068 466.265, 239.598 465.735 C 240.255 465.078, 230.987 439.750, 228.183 434.538 C 224.763 428.183, 216.002 419.468, 208.643 415.103 C 203.336 411.954, 183.461 404, 180.902 404 C 180.146 404, 180.005 405.228, 180.472 407.750 M 409 407.471 C 384.391 415.837, 374.115 425.715, 365.973 448.828 C 363.793 455.017, 361.333 461.390, 360.505 462.991 C 359.677 464.591, 359 466.084, 359 466.307 C 359 467.084, 374.892 461.084, 381.175 457.934 C 394.239 451.385, 406.296 439.281, 413.014 425.971 C 416.632 418.806, 420.498 406.077, 419.371 405.042 C 418.892 404.602, 414.225 405.695, 409 407.471 M 96.087 409.070 C 98.337 412.553, 103.445 414.787, 111.904 415.986 C 123.128 417.578, 135.588 415.212, 125.250 413.452 C 121.072 412.741, 100.890 408.351, 97.009 407.309 C 94.577 406.657, 94.555 406.699, 96.087 409.070 M 493.500 409.539 C 488 410.846, 481.207 412.202, 478.404 412.553 C 473.051 413.224, 470.112 414.445, 471.210 415.543 C 472.158 416.491, 489.845 416.149, 494.273 415.097 C 498.857 414.008, 502.563 411.684, 504 409 C 505.275 406.618, 505.939 406.584, 493.500 409.539 M 105 420.049 C 112.661 426.998, 126.997 431.646, 135.803 430.036 C 142.217 428.863, 142.056 428.003, 135.417 427.974 L 129.500 427.948 133.500 426.055 L 137.500 424.162 130.500 424.075 C 122.536 423.976, 112.054 422.454, 110.815 421.215 C 110.358 420.758, 114.016 420.576, 118.945 420.812 C 123.874 421.047, 129.165 420.868, 130.703 420.413 C 132.700 419.822, 129.783 419.399, 120.500 418.936 C 113.350 418.579, 106.150 417.969, 104.500 417.580 L 101.500 416.874 105 420.049 M 271.701 417.632 C 271.316 418.018, 271 419.158, 271 420.167 C 271 421.469, 271.745 422, 273.570 422 C 275.659 422, 276.079 421.582, 275.820 419.760 C 275.503 417.543, 273.055 416.278, 271.701 417.632 M 324.701 417.632 C 324.316 418.018, 324 419.158, 324 420.167 C 324 421.469, 324.745 422, 326.570 422 C 328.659 422, 329.079 421.582, 328.820 419.760 C 328.503 417.543, 326.055 416.278, 324.701 417.632 M 477.500 418.954 C 469.215 419.375, 467.190 419.726, 469.297 420.377 C 470.835 420.852, 476.122 421.048, 481.047 420.812 C 485.971 420.577, 490 420.505, 490 420.653 C 490 421.587, 479.985 423.348, 471.500 423.908 L 461.500 424.568 466.500 426.180 L 471.500 427.792 465 427.926 C 458.175 428.068, 458.314 429.171, 465.315 430.429 C 472.829 431.780, 486.789 427.075, 494.500 420.594 L 497.500 418.072 493 418.234 C 490.525 418.323, 483.550 418.647, 477.500 418.954 M 231.500 422.824 C 234.800 423.839, 239.257 425.424, 241.404 426.347 C 247.673 429.044, 246.878 427.291, 240.509 424.375 C 237.321 422.916, 232.640 421.555, 230.106 421.351 L 225.500 420.980 231.500 422.824 M 363.301 422.944 C 358.983 424.498, 352.385 428.074, 354.027 427.970 C 354.287 427.954, 359 426.397, 364.500 424.512 C 371.107 422.247, 373.482 421.081, 371.500 421.078 C 369.850 421.075, 366.161 421.914, 363.301 422.944 M 399.347 429.402 C 396.681 431.823, 394.809 434.119, 395.186 434.505 C 396.086 435.424, 405 427.960, 405 426.288 C 405 424.392, 404.651 424.585, 399.347 429.402 M 199.228 430.702 C 201.814 433.288, 204.280 435.053, 204.709 434.624 C 205.626 433.707, 197.666 426, 195.802 426 C 195.100 426, 196.642 428.116, 199.228 430.702 M 249 435.327 C 249 436.111, 262.126 446.208, 262.569 445.764 C 263.201 445.133, 256.885 439.544, 252.750 437.075 C 250.688 435.844, 249 435.058, 249 435.327 M 347 436.958 C 345.075 437.987, 341.925 440.510, 340 442.564 C 335.906 446.935, 337.298 446.325, 345.250 440.265 C 352.532 434.715, 353.058 433.722, 347 436.958 M 208.064 437.750 C 208.164 438.932, 217.004 446.005, 218.318 445.955 C 218.968 445.931, 217.262 443.906, 214.527 441.455 C 209.760 437.184, 207.926 436.133, 208.064 437.750 M 248.244 441.344 C 250.854 443.684, 255.730 447.531, 259.079 449.894 C 264.403 453.648, 264.951 453.854, 263.430 451.534 C 262.473 450.073, 259.173 446.976, 256.095 444.650 C 244.910 436.195, 240.372 434.285, 248.244 441.344 M 350.406 439.941 C 345.005 443.038, 334 452.561, 334 454.137 C 334 455.162, 352.661 441.319, 354.874 438.651 C 356.716 436.432, 356.328 436.544, 350.406 439.941 M 388.923 438.282 C 383.909 442.155, 380.821 445.154, 381.327 445.661 C 382.051 446.384, 392 439.163, 392 437.915 C 392 436.674, 390.823 436.814, 388.923 438.282 M 284.480 440.032 C 284.092 440.660, 284.245 441.645, 284.820 442.220 C 286.164 443.564, 289.297 442.392, 288.750 440.749 C 288.194 439.078, 285.364 438.602, 284.480 440.032 M 312 441 C 312 442.506, 312.522 443.046, 313.750 442.810 C 314.712 442.624, 315.500 441.810, 315.500 441 C 315.500 440.190, 314.712 439.376, 313.750 439.190 C 312.522 438.954, 312 439.494, 312 441 M 197 443.845 C 197 444.773, 199.644 447.235, 202 448.503 C 202.825 448.946, 202.178 447.890, 200.563 446.155 C 197.434 442.794, 197 442.513, 197 443.845 M 244 444.905 C 244 448.971, 248.870 460.147, 252.943 465.426 C 257.319 471.098, 264.001 476.581, 272.500 481.474 C 278.734 485.063, 276.963 482.627, 268.734 476.296 C 265.513 473.817, 263.118 471.548, 263.413 471.254 C 263.707 470.960, 266.305 471.886, 269.188 473.313 C 272.070 474.739, 274.559 475.774, 274.720 475.613 C 275.324 475.009, 269.779 465.566, 266.394 461.436 C 264.458 459.073, 259.266 454.297, 254.856 450.820 C 244.540 442.688, 244 442.394, 244 444.905 M 349.563 447.278 C 341.410 452.852, 332.030 462.457, 328.196 469.157 C 326.438 472.230, 325 475.174, 325 475.701 C 325 476.228, 327.707 475.317, 331.015 473.678 C 334.323 472.038, 337.233 470.900, 337.482 471.149 C 337.731 471.397, 334.760 473.977, 330.880 476.880 C 327 479.783, 324.060 482.393, 324.345 482.679 C 325.374 483.707, 335.512 477.392, 341.067 472.264 C 346.672 467.088, 352.361 457.868, 354.954 449.758 C 357.031 443.259, 356.082 442.822, 349.563 447.278 M 239 445.677 C 239 447.785, 243.109 458.509, 245.415 462.420 C 246.739 464.664, 249.294 467.850, 251.093 469.500 L 254.365 472.500 250.619 467.279 C 248.559 464.408, 245.270 458.333, 243.310 453.779 C 239.578 445.104, 239 444.019, 239 445.677 M 397.766 447.971 C 395.970 449.605, 394.978 450.955, 395.563 450.971 C 396.148 450.987, 397.919 449.650, 399.500 448 C 403.207 444.131, 402.009 444.111, 397.766 447.971 M 102 448 C 102 449.333, 102.667 450, 104 450 C 105.333 450, 106 449.333, 106 448 C 106 446.667, 105.333 446, 104 446 C 102.667 446, 102 446.667, 102 448 M 357.466 452.669 C 355.901 456.350, 353.114 461.601, 351.273 464.338 C 346.439 471.521, 346.342 471.822, 349.937 468.500 C 353.581 465.132, 356.351 460.199, 359.126 452.134 C 361.778 444.427, 360.840 444.729, 357.466 452.669 M 494 448 C 494 449.333, 494.667 450, 496 450 C 497.333 450, 498 449.333, 498 448 C 498 446.667, 497.333 446, 496 446 C 494.667 446, 494 446.667, 494 448 M 138.693 450.450 C 136.331 452.812, 136.491 453.308, 140.902 457.292 C 145.003 460.997, 154.021 463.763, 157.942 462.518 C 160.407 461.736, 161.428 458.668, 160.068 456.127 C 157.147 450.668, 142.393 446.750, 138.693 450.450 M 448.500 450.503 C 441.344 453.035, 437.092 460.942, 442.042 462.513 C 446.556 463.946, 456.060 460.997, 460.750 456.709 C 467.090 450.912, 458.970 446.799, 448.500 450.503 M 143.007 453.250 C 143.016 454.956, 148.691 458.614, 153.205 459.822 C 156.095 460.596, 157.167 460.504, 158.077 459.407 C 159.504 457.688, 158.019 455.578, 153.872 453.434 C 150.393 451.635, 142.997 451.509, 143.007 453.250 M 344.429 455.500 C 341.722 457.425, 339.990 459, 340.582 459 C 341.703 459, 351 453.115, 351 452.406 C 351 451.328, 348.920 452.307, 344.429 455.500 M 448 452.706 C 445.577 453.592, 442 457.228, 442 458.804 C 442 459.939, 442.997 460.148, 446.523 459.750 C 451.777 459.158, 459.897 454.186, 457.792 452.850 C 456.359 451.941, 450.335 451.853, 448 452.706 M 250.821 454.284 C 252.299 456.065, 260.473 460.574, 259.567 459.108 C 258.794 457.858, 251.501 453, 250.397 453 C 250.044 453, 250.235 453.578, 250.821 454.284 M 178.410 468.484 C 175.060 469.213, 168.760 471.315, 164.410 473.155 L 156.500 476.500 163.799 476.795 C 167.813 476.957, 175.094 476.400, 179.979 475.557 C 189.152 473.974, 200 470.456, 200 469.064 C 200 468.177, 192.385 466.957, 187.610 467.079 C 185.900 467.123, 181.759 467.755, 178.410 468.484 M 403 467.853 L 399.500 468.567 402.628 470.246 C 409.055 473.696, 420.333 476.108, 432.500 476.635 L 444.500 477.154 439.212 474.606 C 427.370 468.898, 411.958 466.024, 403 467.853 M 112.676 470.402 C 112.048 472.038, 112.786 473, 114.667 473 C 115.400 473, 116 472.100, 116 471 C 116 468.726, 113.492 468.275, 112.676 470.402 M 483.480 470.032 C 483.092 470.660, 483.245 471.645, 483.820 472.220 C 485.164 473.564, 488.297 472.392, 487.750 470.749 C 487.194 469.078, 484.364 468.602, 483.480 470.032 M 212 470.700 C 210.625 470.934, 204.550 472.424, 198.500 474.010 C 187.116 476.995, 177.952 478.431, 162.500 479.651 C 154.114 480.314, 153.773 480.424, 157.500 481.266 C 164.974 482.956, 186.549 481.461, 196.307 478.578 C 204.468 476.167, 215 471.606, 215 470.483 C 215 470.217, 214.887 470.061, 214.750 470.136 C 214.613 470.211, 213.375 470.465, 212 470.700 M 224 472.142 C 221.525 472.531, 214.680 474.688, 208.790 476.934 C 191.465 483.541, 182.674 485.292, 166.256 485.403 C 158.421 485.456, 152.009 485.742, 152.006 486.039 C 151.997 486.866, 161.929 492.654, 167.186 494.885 C 178.645 499.749, 192.061 500.076, 202.757 495.752 C 205.916 494.476, 212.846 490.614, 218.158 487.172 C 228.501 480.470, 236.796 477, 242.475 477 C 247.422 477, 246.859 475.657, 241.250 474.076 C 233.619 471.925, 228.807 471.386, 224 472.142 M 365.500 472.111 C 359.661 473.440, 355.947 475.106, 356.572 476.116 C 356.872 476.602, 358.200 477, 359.522 477 C 363.955 477, 372.704 481.010, 383.459 487.973 C 389.329 491.774, 396.464 495.696, 399.316 496.690 C 406.554 499.214, 421.484 499.161, 429.344 496.584 C 435.248 494.647, 447.161 488.030, 447.698 486.389 C 447.858 485.900, 441.354 485.431, 433.244 485.346 C 416.663 485.172, 407.211 483.247, 390.163 476.571 C 382.215 473.459, 372.275 470.747, 370.114 471.100 C 369.776 471.156, 367.700 471.611, 365.500 472.111 M 391 473.623 C 402.316 478.784, 412.702 481.148, 426.500 481.703 C 433.650 481.991, 441.075 481.803, 443 481.284 C 446.072 480.456, 445.277 480.253, 436.500 479.624 C 424.723 478.781, 412.456 476.800, 398.161 473.434 C 385.314 470.409, 384.027 470.443, 391 473.623 M 230 483.326 C 226.975 484.579, 221.800 487.456, 218.500 489.719 C 210.420 495.259, 202.729 499.049, 195.500 501.054 C 189.694 502.664, 189.602 502.741, 192.666 503.420 C 197.110 504.405, 202.235 502.774, 211.500 497.426 C 215.900 494.887, 223.887 490.336, 229.250 487.313 C 234.613 484.290, 239 481.633, 239 481.408 C 239 480.394, 235.041 481.238, 230 483.326 M 246 482.534 C 242.975 483.373, 236.225 486.453, 231 489.379 C 225.775 492.304, 217.573 496.903, 212.774 499.599 C 207.975 502.294, 204.038 504.837, 204.024 505.250 C 203.957 507.321, 209.860 505.404, 220.367 499.943 C 238.740 490.392, 250.776 487, 266.288 487 C 274.895 487, 275.236 486.359, 268.101 483.599 C 261.797 481.160, 252.556 480.715, 246 482.534 M 335.197 482.559 C 324.049 485.559, 324.400 486.442, 337 487.097 C 352.214 487.888, 361.285 490.517, 378.588 499.152 C 387.121 503.410, 393.595 506.047, 395.005 505.841 C 396.781 505.581, 393.792 503.450, 382.417 496.865 C 363.302 485.801, 360.279 484.308, 353.320 482.495 C 346.334 480.676, 342.140 480.690, 335.197 482.559 M 362 481.373 C 362 482.263, 396.736 501.865, 400.315 502.994 C 402.607 503.718, 405.601 503.904, 407.815 503.460 L 411.500 502.723 405 500.985 C 395.643 498.484, 393.823 497.636, 383.626 491.030 C 378.579 487.761, 372.887 484.452, 370.975 483.676 C 366.958 482.046, 362 480.774, 362 481.373 M 243.243 492.965 C 233.329 495.626, 213.595 505.929, 215.248 507.581 C 216.557 508.891, 243.913 509.278, 250.173 508.075 C 256.649 506.830, 270 501.335, 270 499.913 C 270 498.543, 261.019 497.706, 253.108 498.339 C 240.578 499.342, 247.325 497.073, 261.256 495.599 C 272.778 494.380, 273.323 494.225, 270.500 492.973 C 265.478 490.747, 251.523 490.743, 243.243 492.965 M 330.750 492.203 C 328.688 492.750, 327 493.536, 327 493.949 C 327 494.361, 331.188 494.973, 336.306 495.310 C 349.813 496.197, 353.064 497.851, 341.500 497.952 C 329.853 498.054, 328.366 498.958, 334.213 502.384 C 343.988 508.113, 362.441 510.382, 381 508.137 L 386.500 507.471 382 504.559 C 375.625 500.433, 360.355 493.450, 354.807 492.123 C 349.175 490.775, 335.959 490.819, 330.750 492.203 M 247.790 525.554 C 246.299 526.361, 242.361 527.306, 239.040 527.654 C 233.172 528.267, 231.399 529.449, 234.540 530.654 C 236.302 531.330, 247.032 529.398, 250.637 527.755 C 252.963 526.696, 253.382 524.915, 251.438 524.355 C 250.922 524.206, 249.280 524.746, 247.790 525.554 M 347.698 524.636 C 346.292 526.042, 347.096 526.871, 351.494 528.551 C 356.938 530.630, 367.099 531.067, 367.732 529.250 C 368.031 528.388, 366.947 528, 364.242 528 C 360.774 528, 354.520 526.508, 349.948 524.589 C 349.094 524.231, 348.082 524.252, 347.698 524.636 M 267.336 526.567 C 267.005 527.429, 267.225 528.625, 267.825 529.225 C 269.269 530.669, 272.096 528.414, 271.334 526.427 C 270.602 524.521, 268.087 524.609, 267.336 526.567 M 328.666 526.427 C 327.904 528.414, 330.731 530.669, 332.175 529.225 C 333.556 527.844, 332.522 525, 330.638 525 C 329.855 525, 328.968 525.642, 328.666 526.427" stroke="none" fill="black" fill-rule="evenodd"/>
</svg>