<svg xmlns="http://www.w3.org/2000/svg" width="980" height="980" viewBox="0 0 980 980" version="1.1">
	<path d="M 323.731 117.750 C 325.052 122.473, 324.373 135.213, 322.582 139.317 C 321.666 141.417, 319.182 145.017, 317.061 147.317 L 313.206 151.500 319.376 151.500 C 324.624 151.500, 326.298 151.983, 330.581 154.731 C 333.350 156.508, 336.680 159.095, 337.982 160.481 C 339.284 161.866, 340.649 163, 341.016 163 C 341.383 163, 341.366 160.912, 340.979 158.359 C 340.205 153.259, 341.079 147.891, 343.117 145.222 C 343.840 144.275, 346.472 141.634, 348.966 139.354 L 353.500 135.208 349.500 134.520 C 339.431 132.787, 333.743 128.950, 328.016 120.025 C 324.462 114.486, 322.532 113.461, 323.731 117.750 M 327.662 133.203 C 327.292 136.327, 325.896 140.257, 324.169 143.035 L 321.292 147.663 325.406 148.764 C 327.669 149.369, 331.204 151.006, 333.260 152.402 C 335.317 153.798, 337.037 154.616, 337.082 154.220 C 337.829 147.686, 339.571 143.603, 342.898 140.593 C 345.854 137.918, 345.561 137.228, 340.943 135.985 C 338.712 135.384, 335.170 133.342, 333.072 131.446 C 330.974 129.551, 329.037 128, 328.768 128 C 328.499 128, 328.001 130.342, 327.662 133.203 M 451.138 139.894 C 449.822 140.727, 450.033 147.886, 451.619 156.190 C 452.047 158.431, 451.614 159.148, 449.029 160.485 C 447.321 161.368, 445.196 163.617, 444.307 165.483 C 442.823 168.594, 442.821 169.079, 444.287 171.315 C 446.306 174.397, 450.315 175.447, 453.706 173.781 C 458.137 171.606, 458.527 170.023, 457.108 159.996 C 456.396 154.967, 456.071 150.595, 456.385 150.281 C 456.700 149.967, 460.364 150.293, 464.528 151.005 C 476.347 153.026, 476.700 150.017, 465.600 141.864 C 462.629 139.683, 460.604 139.004, 457.100 139.015 C 454.570 139.024, 451.887 139.419, 451.138 139.894 M 629.451 185.434 C 627.222 188.837, 628.254 192.563, 631.958 194.478 C 638.196 197.704, 643.437 191.754, 639.281 186.163 C 636.477 182.389, 631.679 182.033, 629.451 185.434 M 454.500 191.110 C 401.572 195.095, 352.323 212.988, 309.076 243.946 C 279.561 265.073, 250.702 294.981, 230.669 325.202 C 201.838 368.695, 181.383 427.386, 179.333 472.500 C 178.363 493.840, 182.659 522.827, 190.604 548.546 C 192.635 555.121, 194.624 563.030, 195.024 566.122 C 195.425 569.214, 196.787 574.839, 198.053 578.622 C 201.632 589.323, 201.165 595.221, 195.630 609.174 C 191.594 619.349, 191 621.795, 191 628.235 C 191 643.380, 198.101 662.762, 214.728 693 C 228.265 717.618, 238.858 734.057, 251.457 750 C 257.108 757.151, 258.969 760.267, 258.982 762.601 C 259.004 766.455, 261.764 771.687, 270.532 784.500 C 292.865 817.138, 304.139 827.362, 320.745 830.036 C 334.360 832.229, 350.214 827.080, 363.401 816.183 C 367.564 812.743, 368.694 812.283, 371.921 812.716 C 377.243 813.430, 384.537 809.426, 391.123 802.175 C 394.522 798.434, 398.710 795.145, 402.507 793.236 C 410.205 789.366, 419.995 782.006, 423.425 777.510 C 429.439 769.624, 430.330 763.155, 427.004 751.497 C 417.895 719.562, 387.360 664.695, 352.711 618 C 312.094 563.263, 293.168 550.393, 268.931 561.030 C 264.844 562.824, 259.788 565.372, 257.696 566.692 C 254.551 568.677, 252.831 569.041, 247.758 568.796 L 241.623 568.500 239.162 560.731 C 237.534 555.595, 235.596 551.791, 233.444 549.509 C 230.757 546.660, 229.743 544.175, 227.640 535.279 C 222.181 512.188, 220 493.744, 220 470.670 C 220 452.458, 221.299 442.960, 225.905 427.500 C 237.510 388.549, 262.367 346.957, 295.829 310.500 C 299.362 306.650, 303.567 301.177, 305.173 298.337 C 307.696 293.875, 309.137 292.634, 315.796 289.183 C 346.393 273.329, 387.916 261.280, 431.812 255.518 C 452.807 252.762, 483.814 251.611, 501.500 252.932 C 546.144 256.266, 579.148 264.047, 632.327 283.773 L 658.170 293.360 662.121 299.179 C 664.295 302.379, 670.402 309.835, 675.693 315.749 C 716.699 361.575, 744.761 419.358, 746.720 462 C 747.700 483.348, 744.505 513.230, 738.700 537 C 736.875 544.475, 735.735 547.142, 733.352 549.512 C 731.373 551.479, 729.372 555.379, 727.579 560.762 L 724.836 569 719.364 569 C 714.821 569, 712.162 568.150, 703.696 563.992 C 691.894 558.196, 685.207 556.633, 678.029 557.995 C 664.725 560.518, 651.275 571.144, 633.090 593.500 C 601.628 632.179, 571.578 678.539, 554.335 715 C 539.412 746.557, 535.311 762.520, 539.729 771.849 C 542.676 778.070, 552.979 787.265, 562.675 792.328 C 569.217 795.744, 572.240 797.995, 574.360 801.031 C 578.828 807.427, 586.936 812.295, 593.970 812.804 C 599.042 813.171, 600.459 813.775, 605.015 817.512 C 616.749 827.138, 634.077 832.381, 646.539 830.077 C 662.747 827.081, 674.082 816.800, 695.149 785.987 C 705.255 771.204, 706.801 768.381, 707.308 763.776 C 707.781 759.490, 707.834 759.399, 716.042 749 C 730.200 731.062, 744.316 708.252, 758.567 680.286 C 767.866 662.037, 770.082 656.580, 773.701 643.010 C 777.250 629.703, 776.699 622.858, 770.962 609 C 765.497 595.798, 765.148 588.933, 769.296 576.198 C 770.783 571.632, 772 566.415, 772 564.605 C 772 562.794, 772.919 558.655, 774.043 555.407 C 777.775 544.616, 781.945 527.681, 784.607 512.500 C 790.669 477.938, 786.981 443.791, 772.511 400.480 C 749.971 333.015, 707.389 277.149, 648.500 237.786 C 621.335 219.627, 585.959 204.168, 556.500 197.581 C 537.933 193.430, 524.514 191.885, 499 190.964 C 471.284 189.963, 469.670 189.968, 454.500 191.110 M 458.722 196.110 C 406.845 200.097, 352.177 220.191, 311 250.405 C 290.625 265.356, 265.312 289.658, 249.969 309 C 218.774 348.325, 195.236 401.323, 187.125 450.500 C 184.325 467.480, 183.667 475, 184.984 475 C 185.579 475, 188.414 473.810, 191.283 472.356 C 194.152 470.903, 200.512 468.221, 205.415 466.398 C 210.318 464.576, 214.642 462.579, 215.024 461.962 C 215.405 461.344, 216.004 457.114, 216.354 452.560 C 216.704 448.006, 218.365 438.819, 220.044 432.144 C 230.352 391.187, 256.005 345.410, 289.843 307.589 C 298.684 297.708, 303.166 289.184, 305.929 277 C 308.779 264.430, 312.909 256.157, 319.851 249.113 C 327.171 241.685, 332.250 238.289, 347 230.959 C 380.046 214.538, 414.488 204.027, 445.388 200.934 C 462.146 199.256, 519.829 200.252, 534 202.464 C 555.736 205.856, 579.484 213.060, 604 223.697 C 643.660 240.906, 654.355 250.977, 660.850 277.230 C 664.405 291.599, 666.953 296.230, 678.699 309.663 C 717.621 354.176, 745.147 408.559, 750.149 450.826 C 750.779 456.147, 751.609 461.109, 751.995 461.853 C 752.380 462.598, 757.151 464.891, 762.598 466.949 C 768.044 469.007, 774.395 471.661, 776.710 472.846 C 779.026 474.031, 781.298 475, 781.760 475 C 783.489 475, 779.613 446.232, 775.899 431.506 C 768.518 402.238, 755.974 370.727, 742.036 346.441 C 699.656 272.598, 626.341 218.327, 546.461 201.669 C 519.267 195.998, 486.882 193.946, 458.722 196.110 M 459.500 205.558 C 458.400 205.715, 452.775 206.373, 447 207.020 C 421.589 209.870, 396.934 216.579, 367.842 228.563 C 337.528 241.049, 323.515 250.669, 317.189 263.336 C 314.848 268.023, 310.297 284.631, 311.126 285.460 C 311.376 285.709, 315.837 283.720, 321.040 281.041 C 350.048 266.100, 394.481 253.787, 439 248.354 C 459.501 245.852, 503.156 245.826, 522.500 248.304 C 564.817 253.726, 607.021 265.486, 647.740 283.203 C 651.722 284.935, 655.238 286.095, 655.553 285.781 C 656.581 284.752, 652.031 267.829, 649.453 263.091 C 642.119 249.617, 626.060 239.175, 591.962 225.711 C 562.905 214.238, 542.400 209.338, 511.500 206.485 C 497.825 205.223, 465.846 204.652, 459.500 205.558 M 292.655 219.829 C 290.251 222.485, 290.618 225.703, 293.541 227.619 C 297.177 230.001, 301 228.195, 301 224.093 C 301 218.700, 295.992 216.141, 292.655 219.829 M 449.500 239.615 C 418.295 242.098, 386.952 248.963, 359.347 259.360 C 335.393 268.383, 334.834 269.401, 358.197 261.455 C 386.402 251.861, 405.715 247.421, 431.643 244.570 C 462.670 241.157, 493.942 241.518, 522 245.612 C 532.895 247.201, 570.345 254.470, 573.628 255.632 C 574.918 256.088, 575.189 255.968, 574.500 255.244 C 571.891 252.505, 536.988 244.284, 516 241.466 C 504.943 239.982, 460.458 238.743, 449.500 239.615 M 667 267.128 C 670.575 270.446, 676.777 276.145, 680.783 279.793 C 690.275 288.435, 706.405 306.461, 715.462 318.550 C 726.049 332.679, 734.302 346.289, 744.540 366.500 C 758.554 394.168, 765.510 415.014, 772.620 450.644 C 775.340 464.278, 777.502 468.611, 776.414 458.250 C 775.496 449.512, 770.415 424.604, 767.510 414.609 C 754.214 368.850, 724.437 319.044, 690.870 286.422 C 680.416 276.262, 662.531 260.960, 661.212 261.047 C 660.820 261.073, 663.425 263.809, 667 267.128 M 302.640 277.476 C 298.442 286.645, 290.080 298.664, 277.924 313.001 C 259.695 334.501, 254.346 341.858, 242.103 362.269 C 226.203 388.776, 214.565 422.788, 212.597 448.500 C 211.971 456.686, 212.491 455.035, 216.535 436 C 225.149 395.455, 245.930 354.984, 276.614 319 C 292.772 300.050, 300.478 288.398, 304.625 276.647 C 306.741 270.647, 305.535 271.151, 302.640 277.476 M 599.571 284.571 C 597.383 286.760, 597.611 289.614, 600.115 291.368 C 602.259 292.870, 604.897 292.527, 606.235 290.573 C 607.621 288.548, 606.999 285.070, 605.066 284.035 C 602.438 282.629, 601.414 282.729, 599.571 284.571 M 793.196 298.250 C 795.347 307.553, 792.460 318.989, 786.144 326.183 C 784.415 328.152, 783 329.930, 782.999 330.132 C 782.999 330.334, 785.190 330.348, 787.867 330.162 C 793.722 329.756, 799.077 332.186, 805.620 338.217 C 808.051 340.459, 810.218 342.114, 810.434 341.896 C 810.650 341.678, 810.470 339.556, 810.035 337.179 C 808.594 329.321, 810.711 324.010, 817.499 318.447 C 819.974 316.419, 822 314.426, 822 314.019 C 822 313.612, 819.663 313.002, 816.806 312.663 C 809.547 311.804, 803.407 307.699, 798.186 300.213 C 795.802 296.796, 793.483 294, 793.032 294 C 792.581 294, 792.655 295.913, 793.196 298.250 M 796.994 309.250 C 796.985 313.054, 795.093 318.584, 792.486 322.426 C 789.481 326.853, 789.467 327, 792.032 327 C 794.923 327, 801.087 329.733, 803.670 332.160 L 805.867 334.224 806.567 330.362 C 807.405 325.742, 809.494 321.309, 812.263 318.281 L 814.291 316.061 811.396 315.004 C 804.592 312.519, 803.078 311.712, 800.924 309.420 C 798.092 306.405, 797.002 306.357, 796.994 309.250 M 187.596 333.306 C 183.292 336.453, 189.244 343.217, 193.803 340.359 C 197.642 337.954, 195.645 332, 191 332 C 190.110 332, 188.579 332.588, 187.596 333.306 M 448.461 364.750 C 448.507 376.266, 446.734 381.927, 441.488 387.012 C 439.569 388.871, 438.003 390.642, 438.006 390.946 C 438.009 391.251, 440.596 391.532, 443.756 391.572 C 450.322 391.654, 453.586 393.112, 460.153 398.900 C 462.713 401.155, 464.978 403, 465.186 403 C 465.395 403, 465.391 399.918, 465.178 396.152 C 464.709 387.851, 466.018 384.920, 472.391 380 C 474.884 378.075, 476.941 376.183, 476.962 375.795 C 476.983 375.408, 475.313 374.803, 473.250 374.450 C 463.608 372.805, 457.595 368.720, 452.016 360.025 C 450.243 357.261, 448.708 355, 448.607 355 C 448.505 355, 448.440 359.387, 448.461 364.750 M 451.674 373.102 C 451.342 375.909, 449.929 380.151, 448.535 382.531 C 447.141 384.910, 446 387.042, 446 387.270 C 446 387.497, 447.735 388.203, 449.856 388.839 C 451.977 389.474, 455.315 391.082, 457.275 392.412 C 461.293 395.139, 462 394.895, 462 390.784 C 462 387.361, 463.986 383.227, 466.898 380.593 C 469.854 377.918, 469.561 377.228, 464.943 375.985 C 462.712 375.384, 459.170 373.342, 457.072 371.446 C 454.974 369.551, 453.037 368, 452.768 368 C 452.499 368, 452.007 370.296, 451.674 373.102 M 823.280 423.199 C 822.623 424.014, 822.558 425.366, 823.108 426.817 C 823.783 428.601, 824.620 429.061, 826.743 428.817 C 829.069 428.550, 829.500 428.031, 829.500 425.500 C 829.500 423.018, 829.054 422.448, 826.914 422.199 C 825.492 422.034, 823.857 422.484, 823.280 423.199 M 241 466.825 C 241 467.829, 243.054 471.295, 245.564 474.528 C 248.998 478.950, 249.952 480.911, 249.417 482.452 C 248.275 485.745, 248.539 490.740, 249.945 492.433 C 252.664 495.710, 259 493.021, 259 488.590 C 259 487.625, 257.425 484.149, 255.500 480.865 C 250.998 473.183, 250.879 470.770, 255.195 474.676 C 257.832 477.063, 259.747 475.041, 258.434 471.255 C 257.189 467.665, 251.790 465.004, 245.750 465.002 C 241.818 465, 241 465.314, 241 466.825 M 205.500 472.410 C 196.083 476.038, 184.969 481.918, 184.317 483.617 C 183.489 485.773, 185.674 506.248, 188.027 518.386 C 190.218 529.688, 196.863 555.080, 197.942 556.270 C 198.325 556.693, 204.458 555.110, 211.570 552.752 L 224.500 548.465 224.443 544.982 C 224.412 543.067, 223.198 536.325, 221.747 530 C 218.001 513.678, 216.046 499.605, 215.321 483.750 C 214.604 468.061, 215.150 468.691, 205.500 472.410 M 751.211 486.880 C 750.073 503.009, 747.222 521.372, 743.126 538.964 L 741.230 547.105 743.365 548.433 C 744.539 549.164, 748.870 550.760, 752.988 551.982 C 757.106 553.203, 762.173 555.068, 764.248 556.126 L 768.020 558.051 769.010 555.775 C 771.009 551.182, 777.114 527.188, 779.002 516.500 C 781.359 503.163, 783.304 484.301, 782.463 482.940 C 781.170 480.849, 757.124 470, 753.781 470 C 752.711 470, 752.135 473.781, 751.211 486.880 M 670.511 487.967 C 670.167 489.048, 670.362 492.506, 670.943 495.650 C 671.524 498.795, 672 503.535, 672 506.184 L 672 511 668.250 511.015 C 663.938 511.033, 662.748 511.648, 661.150 514.684 C 657.002 522.564, 665.974 530.471, 672.106 524.339 C 674.499 521.946, 676.915 512.482, 676.964 505.309 C 676.984 502.454, 677.410 499.865, 677.911 499.555 C 678.413 499.245, 680.137 499.746, 681.743 500.667 C 685.290 502.703, 688 501.874, 688 498.754 C 688 495.505, 685.777 492.703, 680.346 489.106 C 674.919 485.511, 671.419 485.106, 670.511 487.967 M 776.005 498.750 C 773.874 514.258, 768.866 538.548, 765.386 550.250 C 764.561 553.024, 766.551 552.282, 767.904 549.311 C 769.687 545.398, 774.668 524.751, 775.984 515.821 C 777.589 504.924, 778.689 490, 777.886 490 C 777.512 490, 776.666 493.938, 776.005 498.750 M 187 494.782 C 187 506.200, 192.493 534.226, 197.191 546.778 C 200.510 555.647, 200.413 551.479, 196.996 538.367 C 195.295 531.840, 192.584 518.897, 190.971 509.603 C 188.053 492.781, 187 488.851, 187 494.782 M 215.170 556.487 C 205.200 560.107, 201.219 562.267, 200.352 564.524 C 200.055 565.298, 201.289 570.334, 203.093 575.716 C 207.842 589.879, 207.613 595.138, 201.582 610.363 C 195.404 625.961, 195.330 629.422, 200.802 647 C 203.674 656.226, 216.265 682.515, 225.468 698.500 C 238.187 720.592, 261.718 754, 264.560 754 C 266.195 754, 275.108 746.950, 277.800 743.528 C 280.753 739.773, 282.316 734.393, 281.728 730.008 C 281.173 725.874, 270.866 704.687, 263.530 692.602 C 255.493 679.363, 253.999 673.121, 258 669.500 C 259.100 668.505, 260 667.379, 260 666.998 C 260 666.617, 256.779 660.500, 252.843 653.403 C 233.816 619.102, 225.037 594.862, 227.869 584.447 C 228.475 582.218, 230.553 578.546, 232.486 576.288 C 234.418 574.030, 236 571.514, 236 570.696 C 236 567.818, 231.929 556.072, 230.402 554.545 C 228.199 552.342, 225.714 552.659, 215.170 556.487 M 735.684 555.138 C 734.854 556.437, 733.237 560.582, 732.090 564.349 L 730.004 571.198 733.978 575.712 C 738.539 580.894, 739.514 584.598, 738.676 593.565 C 737.557 605.550, 730.299 623.075, 714.303 652.414 C 708.149 663.702, 706.934 666.628, 707.866 667.914 C 712.510 674.326, 711.959 677.092, 702.867 693.012 C 686.825 721.104, 683.138 730.971, 685.933 738.324 C 687.791 743.211, 699.173 754, 702.472 754 C 703.116 754, 707.266 749.163, 711.694 743.250 C 737.793 708.400, 761.045 665.736, 767.940 640.042 C 771.014 628.592, 770.480 623.206, 764.964 610 C 760.977 600.454, 760.586 598.773, 760.652 591.500 C 760.707 585.539, 761.398 581.607, 763.363 576.075 C 766.281 567.858, 766.668 563.799, 764.689 562.157 C 762.625 560.444, 745.662 554.130, 741.213 553.418 C 737.709 552.858, 737 553.079, 735.684 555.138 M 278.715 565.079 C 273.208 565.960, 263.067 570.481, 256.562 574.957 C 250.535 579.104, 250.002 582.171, 253.494 592.585 C 263.887 623.574, 311.273 701.109, 357.338 762.500 C 375.321 786.465, 378.241 789, 387.866 789 C 393.620 789, 400.738 785.627, 409.962 778.529 C 421.241 769.850, 422.690 765.339, 418.479 752 C 405.674 711.432, 369.548 650.958, 325.695 596.681 C 313.046 581.026, 302.803 571.458, 294.516 567.556 C 288.318 564.638, 284.862 564.097, 278.715 565.079 M 671.055 568.211 C 659.716 574.059, 646.418 588.236, 623.885 618.500 C 589.212 665.068, 561.776 712.870, 549.534 748.040 C 543.849 764.372, 544.758 768.565, 556.013 777.931 C 568.630 788.432, 579.250 791.464, 587.918 787.042 C 594.785 783.539, 618.023 752.601, 650.860 703.245 C 675.859 665.670, 690.543 641.089, 702.680 616.500 C 712.786 596.026, 716.792 584.327, 715.098 580.236 C 713.679 576.810, 706.657 571.944, 697.493 568.036 C 687.488 563.770, 679.565 563.822, 671.055 568.211 M 272 568.605 C 265.009 571.139, 253.737 579.070, 255.138 580.471 C 255.370 580.703, 259.542 579.294, 264.410 577.340 C 274.249 573.389, 282.432 572.218, 288.577 573.881 C 290.819 574.488, 296.404 577.238, 300.987 579.992 C 305.570 582.746, 309.725 585, 310.222 585 C 311.590 585, 305.230 576.546, 302.146 574.266 C 293.057 567.546, 281.112 565.303, 272 568.605 M 161.738 576.250 C 163.755 587.501, 161.097 597.955, 154.558 604.495 L 150.383 608.670 155.210 608.206 C 161.654 607.587, 167.610 609.964, 173.609 615.550 C 176.237 617.998, 178.714 620, 179.113 620 C 179.512 620, 179.385 618.355, 178.829 616.344 C 178.274 614.333, 178.119 610.620, 178.484 608.094 C 179.054 604.157, 179.995 602.700, 185.066 597.908 C 188.321 594.833, 190.687 592.020, 190.325 591.658 C 189.963 591.296, 188.279 590.990, 186.583 590.978 C 182.602 590.950, 175.266 587.614, 171.709 584.215 C 170.174 582.748, 167.539 579.399, 165.855 576.774 C 162.051 570.845, 160.740 570.679, 161.738 576.250 M 242.337 578.060 C 234.733 582.931, 233.916 589.497, 238.956 605.216 C 251.792 645.243, 327.509 764.828, 360.947 797.883 C 369.055 805.899, 372.187 807.367, 376.939 805.381 C 381.489 803.480, 387.194 799.082, 386.768 797.804 C 386.582 797.246, 384.735 796.207, 382.663 795.495 C 377.168 793.606, 371.478 789.357, 366.705 783.580 C 364.397 780.786, 358.632 774, 353.894 768.500 C 341.734 754.382, 332.256 741.329, 312.508 711.500 C 286.758 672.605, 269.966 644.355, 257.840 619.528 C 248.455 600.314, 246.552 594.382, 246.523 584.251 C 246.511 579.714, 246.275 576.010, 246 576.018 C 245.725 576.027, 244.076 576.946, 242.337 578.060 M 702.036 576.290 C 702.016 576.724, 702.900 578.844, 704 581 C 709.314 591.416, 703.152 609.087, 682.735 641.990 C 673.144 657.447, 625.772 728.785, 615.659 743 C 608.467 753.110, 592.412 773.379, 585.750 780.759 C 583.138 783.653, 581 786.257, 581 786.546 C 581 789.926, 599.411 770.329, 611.808 753.753 C 622.024 740.093, 667.271 672.531, 681.626 649.500 C 702.363 616.232, 710.872 595.558, 708.058 585.277 C 707.122 581.857, 702.122 574.395, 702.036 576.290 M 720.471 583.751 C 720.437 592.576, 719.063 597.288, 711.812 613.452 C 701.515 636.405, 680.295 672.334, 650.952 716.500 C 630.953 746.601, 609.897 773.927, 595.709 788.190 C 591.838 792.081, 585.260 796, 582.599 796 C 578.034 796, 580.778 800.823, 587.210 804.106 C 593.976 807.560, 596.352 806.832, 604.711 798.750 C 614.473 789.311, 622.355 779.809, 635.193 762 C 669.246 714.761, 696.412 671.169, 715.273 633.500 C 726.853 610.373, 729.669 602.739, 730.672 591.762 L 731.288 585.025 726.776 580.512 C 724.294 578.031, 721.866 576.001, 721.382 576.001 C 720.897 576.002, 720.487 579.490, 720.471 583.751 M 382.286 582.271 C 381.246 584.555, 374.627 606.233, 371.499 617.599 C 370.576 620.953, 370.008 624.778, 370.237 626.099 C 370.607 628.232, 370.888 627.997, 372.751 624 C 375.998 617.037, 386.265 583.133, 385.629 581.475 C 384.811 579.343, 383.475 579.661, 382.286 582.271 M 756.510 585.500 C 756 587.700, 755.626 593.100, 755.678 597.500 C 755.755 603.957, 756.398 607.140, 759.015 614 C 763.460 625.657, 763.469 632.954, 759.053 646.413 C 755.212 658.122, 742.349 683.637, 728.082 707.846 C 722.460 717.387, 718.035 725.368, 718.249 725.582 C 718.808 726.141, 731.640 707.339, 739.489 694.460 C 748.131 680.281, 759.125 657.792, 762.691 647 C 766.814 634.523, 766.610 624.269, 762.035 614 C 759.021 607.235, 758.632 605.275, 758.064 594 C 757.525 583.281, 757.303 582.070, 756.510 585.500 M 165.593 589.013 C 164.901 594.225, 161.984 601.274, 160.014 602.491 C 158.298 603.552, 158.890 605, 161.040 605 C 163.283 605, 170.560 608.409, 173.130 610.663 C 174.599 611.951, 174.826 611.645, 175.442 607.541 C 175.870 604.682, 177.373 601.354, 179.486 598.586 C 183.035 593.937, 183.032 593, 179.473 593 C 176.982 593, 170.299 588.829, 167.896 585.775 C 166.357 583.819, 166.264 583.949, 165.593 589.013 M 574.425 585.335 C 573.680 587.277, 585.756 625.543, 588.675 630.492 C 590.943 634.336, 591.155 631.082, 589.141 623.329 C 586.795 614.297, 579.723 590.804, 578.130 586.750 C 576.974 583.808, 575.262 583.154, 574.425 585.335 M 648.742 595.250 C 645.212 600.888, 635.444 617.200, 627.035 631.500 C 608.120 663.668, 598.176 679.624, 577.374 711.189 C 556.532 742.813, 555.743 744.077, 556.432 744.765 C 557.518 745.851, 562.251 740.484, 573.417 725.500 C 592.387 700.045, 609.171 674.717, 626.697 645.099 C 633.897 632.932, 653.728 594.087, 655.855 587.985 C 657.844 582.281, 655.124 585.059, 648.742 595.250 M 208.415 596.753 C 208.336 604.893, 208.046 606.077, 204.229 613.815 C 198.869 624.683, 198.170 630.279, 200.849 640.873 C 203.046 649.561, 212.172 669.254, 221.531 685.500 C 228.217 697.105, 243.518 719.912, 248.032 725 C 251.349 728.739, 251.096 727.435, 247.548 722.500 C 231.823 700.633, 206.404 652.697, 203.420 639.285 C 201.327 629.877, 202.041 624.918, 207.073 613.908 C 211.085 605.131, 211.964 599.068, 210.375 591.125 C 209.267 585.587, 208.502 587.785, 208.415 596.753 M 312.668 594.750 C 313 595.712, 316.952 604.150, 321.449 613.500 C 339.608 651.255, 376.598 707.371, 406.635 742.731 C 407.809 744.113, 409.287 745.071, 409.919 744.860 C 410.563 744.646, 405.738 736.574, 398.937 726.489 C 372.951 687.956, 357.839 664.685, 346.017 645 C 321.876 604.803, 309.910 586.772, 312.668 594.750 M 408 609.191 C 387.594 624.618, 377 633.291, 377 634.569 C 377 636.904, 381.750 633.984, 399.873 620.507 C 410.038 612.947, 416 607.864, 416 606.757 C 416 604.049, 413.993 604.660, 408 609.191 M 544 610.407 C 544 612.135, 549.728 616.895, 566 628.686 C 582.099 640.352, 586.109 642.455, 582.541 637.362 C 580.729 634.776, 546.794 609, 545.201 609 C 544.540 609, 544 609.633, 544 610.407 M 409 639.627 C 389.507 642.340, 383.657 643.635, 384.529 645.047 C 385.393 646.445, 388.578 646.259, 410.496 643.538 C 429.853 641.135, 434.147 639.969, 430.992 637.974 C 429.110 636.784, 429.800 636.732, 409 639.627 M 529.345 642.543 C 529.019 643.392, 528.990 644.324, 529.281 644.614 C 529.975 645.308, 567.406 649.999, 572.250 650 C 576.177 650, 577.240 648.692, 574.250 647.539 C 572.804 646.981, 533.244 641.049, 530.719 641.012 C 530.289 641.005, 529.671 641.694, 529.345 642.543 M 261.465 673.057 C 260.267 674.995, 261.877 678.498, 269.040 689.543 C 272.949 695.569, 279.038 706.268, 282.573 713.318 C 288.325 724.789, 289 726.763, 289 732.101 C 289 742.145, 283.665 749.959, 270.750 758.833 C 267.991 760.728, 266 762.866, 266 763.933 C 266 766.893, 288.800 798.763, 297.219 807.572 C 305.886 816.640, 312.159 820.543, 320.566 822.097 C 330.804 823.989, 344.221 820.442, 356.395 812.625 L 362.290 808.839 355.317 801.670 C 351.482 797.726, 345.854 791.575, 342.812 788 C 327.565 770.083, 295.671 724.177, 273.500 688.236 C 268 679.320, 263.189 672.019, 262.809 672.013 C 262.429 672.006, 261.824 672.476, 261.465 673.057 M 697.932 680.750 C 680.001 710.144, 654.970 747.359, 636.894 771.500 C 626.425 785.481, 609.124 805.355, 606.567 806.336 C 603.634 807.462, 605.025 809.494, 611.267 813.202 C 623.221 820.302, 626.566 821.372, 638.174 821.812 C 648.048 822.186, 649.280 822.018, 654.610 819.578 C 662.927 815.771, 674.239 803.749, 687.697 784.414 C 693.855 775.567, 699.471 767.060, 700.178 765.508 C 701.376 762.879, 701.268 762.546, 698.578 760.594 C 688.428 753.226, 685.791 751.011, 683.040 747.551 C 679.063 742.545, 676.614 734.243, 677.525 728.850 C 678.373 723.835, 688.871 703.074, 696.399 691.524 C 703.669 680.371, 706.119 675.473, 705.384 673.558 C 705.055 672.701, 704.445 672, 704.028 672 C 703.611 672, 700.868 675.938, 697.932 680.750 M 781.318 677.615 C 780.994 678.459, 781.577 681.928, 782.614 685.325 C 783.692 688.855, 784.500 694.491, 784.500 698.482 C 784.500 705.315, 784.441 705.474, 781.736 705.982 C 777.274 706.819, 772 711.633, 772 714.868 C 772 718.133, 775.660 722, 778.749 722 C 786.400 722, 789.007 717.308, 789.321 702.971 C 789.440 697.558, 789.850 692.816, 790.234 692.433 C 790.617 692.049, 793.947 691.683, 797.633 691.618 C 801.443 691.551, 804.489 691.034, 804.694 690.419 C 805.785 687.141, 796.474 680.330, 787.203 677.625 C 782.444 676.237, 781.847 676.236, 781.318 677.615 M 348.970 744 C 351.136 748.176, 360.988 762.065, 367.228 769.741 C 376.302 780.903, 386.822 787.006, 394.504 785.565 C 398.087 784.893, 405 779.224, 405 776.958 C 405 776.124, 404.181 776.421, 402.736 777.778 C 399.355 780.955, 393.419 783.139, 390.242 782.375 C 381.295 780.225, 374.003 773.877, 360.527 756.509 C 350.549 743.649, 346.532 739.301, 348.970 744 M 219.500 756.935 C 215.029 758.024, 210.942 760.423, 206.750 764.420 C 201.309 769.608, 201.737 771.321, 208.977 773.334 C 212.265 774.248, 218.820 776.781, 223.544 778.964 L 232.133 782.932 231.473 787.334 C 230.476 793.978, 234.204 800.022, 240.225 801.524 C 243.890 802.439, 249 797.564, 249 793.154 C 249 790.171, 244.831 784, 242.815 784 C 242.262 784, 240.535 783.093, 238.978 781.984 C 237.421 780.876, 231.614 777.727, 226.074 774.988 C 220.533 772.249, 216 769.634, 216 769.178 C 216 767.588, 220.534 764.120, 225.250 762.103 C 230.389 759.905, 231.085 758.651, 228.066 757.035 C 225.908 755.881, 223.926 755.857, 219.500 756.935 M 763.461 768.750 C 763.505 779.709, 761.878 784.652, 756.041 791.301 L 752.793 795 758.081 795 C 764.579 795, 770.265 797.596, 775.582 802.991 C 780.023 807.497, 781.463 808.022, 780.411 804.750 C 779.232 801.083, 779.769 793.347, 781.426 790.142 C 782.275 788.502, 785.001 785.494, 787.484 783.459 C 789.968 781.424, 792 779.426, 792 779.019 C 792 778.612, 789.774 778.015, 787.054 777.693 C 778.831 776.719, 773.416 772.926, 767.148 763.750 C 765.364 761.138, 763.796 759, 763.663 759 C 763.531 759, 763.440 763.388, 763.461 768.750 M 685.430 779.758 C 673.377 797.556, 662.914 808.381, 653.021 813.287 C 647.125 816.211, 645.731 816.495, 637.521 816.439 C 631.015 816.396, 626.830 815.789, 622.509 814.263 C 614.875 811.568, 614.063 812.232, 621.098 815.418 C 633.063 820.839, 644.891 820.815, 655.706 815.348 C 661.577 812.382, 671.592 802.699, 678.824 793 C 684.447 785.459, 692.478 772.145, 691.808 771.475 C 691.556 771.223, 688.686 774.950, 685.430 779.758 M 276.098 775.750 C 283.240 787.594, 293.387 801.399, 299.500 807.586 C 311.885 820.123, 323.326 823.526, 338.054 819.052 C 341.991 817.857, 345.005 816.672, 344.753 816.419 C 344.500 816.167, 341.190 816.681, 337.397 817.562 C 318.715 821.901, 304.686 813.196, 284.500 784.740 C 279.550 777.762, 275.126 772.041, 274.668 772.027 C 274.211 772.012, 274.854 773.688, 276.098 775.750 M 767 774.851 C 767 778.474, 765.222 783.742, 762.847 787.154 C 760.424 790.637, 760.515 792, 763.169 792 C 764.362 792, 767.687 793.325, 770.557 794.945 C 773.428 796.565, 776.051 797.615, 776.388 797.279 C 776.725 796.942, 777 795.201, 777 793.410 C 777 791.228, 778.155 788.640, 780.500 785.568 C 784.591 780.209, 784.645 780, 781.960 780 C 779.260 780, 772.980 776.743, 770.595 774.106 C 768.011 771.249, 767 771.459, 767 774.851 M 486.892 818.250 C 484.976 825.122, 485.429 834.190, 487.948 839.393 L 490.149 843.939 485.955 847.928 C 482.380 851.329, 481.859 852.328, 482.416 854.708 C 483.211 858.102, 489.236 864, 491.909 864 C 496.785 864, 503.033 854.832, 501.484 849.950 C 501.121 848.805, 498.886 845.686, 496.518 843.020 C 492.199 838.157, 489.309 831.927, 490.488 830.020 C 491.412 828.525, 496.668 828.777, 499.949 830.474 C 502.389 831.736, 502.966 831.746, 503.962 830.545 C 505.634 828.531, 503.300 824.489, 497.130 818.719 C 490.687 812.692, 488.470 812.591, 486.892 818.250 M 377.897 858.883 C 375.845 860.544, 375.712 861.072, 376.765 863.383 C 378.203 866.539, 381.205 866.795, 384 864 C 386.411 861.589, 386.487 860.630, 384.429 858.571 C 382.368 856.510, 380.730 856.588, 377.897 858.883" stroke="none" fill="black" fill-rule="evenodd"/>
</svg>